<svg id="mermaid-1612551435036" width="100%" xmlns="http://www.w3.org/2000/svg" xmlns:xlink="http://www.w3.org/1999/xlink" height="346.71875" style="max-width: 1486.9375px;" viewBox="-20 -20 1486.9375 346.71875"><style>#mermaid-1612551435036{font-family:"trebuchet ms",verdana,arial,sans-serif;font-size:16px;fill:#333;}#mermaid-1612551435036 .error-icon{fill:#552222;}#mermaid-1612551435036 .error-text{fill:#552222;stroke:#552222;}#mermaid-1612551435036 .edge-thickness-normal{stroke-width:2px;}#mermaid-1612551435036 .edge-thickness-thick{stroke-width:3.5px;}#mermaid-1612551435036 .edge-pattern-solid{stroke-dasharray:0;}#mermaid-1612551435036 .edge-pattern-dashed{stroke-dasharray:3;}#mermaid-1612551435036 .edge-pattern-dotted{stroke-dasharray:2;}#mermaid-1612551435036 .marker{fill:#333333;}#mermaid-1612551435036 .marker.cross{stroke:#333333;}#mermaid-1612551435036 svg{font-family:"trebuchet ms",verdana,arial,sans-serif;font-size:16px;}#mermaid-1612551435036 g.classGroup text{fill:#9370DB;fill:#131300;stroke:none;font-family:"trebuchet ms",verdana,arial,sans-serif;font-size:10px;}#mermaid-1612551435036 g.classGroup text .title{font-weight:bolder;}#mermaid-1612551435036 .classTitle{font-weight:bolder;}#mermaid-1612551435036 .node rect,#mermaid-1612551435036 .node circle,#mermaid-1612551435036 .node ellipse,#mermaid-1612551435036 .node polygon,#mermaid-1612551435036 .node path{fill:#ECECFF;stroke:#9370DB;stroke-width:1px;}#mermaid-1612551435036 .divider{stroke:#9370DB;stroke:1;}#mermaid-1612551435036 g.clickable{cursor:pointer;}#mermaid-1612551435036 g.classGroup rect{fill:#ECECFF;stroke:#9370DB;}#mermaid-1612551435036 g.classGroup line{stroke:#9370DB;stroke-width:1;}#mermaid-1612551435036 .classLabel .box{stroke:none;stroke-width:0;fill:#ECECFF;opacity:0.5;}#mermaid-1612551435036 .classLabel .label{fill:#9370DB;font-size:10px;}#mermaid-1612551435036 .relation{stroke:#333333;stroke-width:1;fill:none;}#mermaid-1612551435036 .dashed-line{stroke-dasharray:3;}#mermaid-1612551435036 #compositionStart,#mermaid-1612551435036 .composition{fill:#333333 !important;stroke:#333333 !important;stroke-width:1;}#mermaid-1612551435036 #compositionEnd,#mermaid-1612551435036 .composition{fill:#333333 !important;stroke:#333333 !important;stroke-width:1;}#mermaid-1612551435036 #dependencyStart,#mermaid-1612551435036 .dependency{fill:#333333 !important;stroke:#333333 !important;stroke-width:1;}#mermaid-1612551435036 #dependencyStart,#mermaid-1612551435036 .dependency{fill:#333333 !important;stroke:#333333 !important;stroke-width:1;}#mermaid-1612551435036 #extensionStart,#mermaid-1612551435036 .extension{fill:#333333 !important;stroke:#333333 !important;stroke-width:1;}#mermaid-1612551435036 #extensionEnd,#mermaid-1612551435036 .extension{fill:#333333 !important;stroke:#333333 !important;stroke-width:1;}#mermaid-1612551435036 #aggregationStart,#mermaid-1612551435036 .aggregation{fill:#ECECFF !important;stroke:#333333 !important;stroke-width:1;}#mermaid-1612551435036 #aggregationEnd,#mermaid-1612551435036 .aggregation{fill:#ECECFF !important;stroke:#333333 !important;stroke-width:1;}#mermaid-1612551435036 .edgeTerminals{font-size:11px;}#mermaid-1612551435036:root{--mermaid-font-family:"trebuchet ms",verdana,arial,sans-serif;}#mermaid-1612551435036 class{fill:apa;}</style><g></g><defs><marker id="extensionStart" class="extension" refX="0" refY="7" markerWidth="190" markerHeight="240" orient="auto"><path d="M 1,7 L18,13 V 1 Z"></path></marker></defs><defs><marker id="extensionEnd" refX="19" refY="7" markerWidth="20" markerHeight="28" orient="auto"><path d="M 1,1 V 13 L18,7 Z"></path></marker></defs><defs><marker id="compositionStart" class="extension" refX="0" refY="7" markerWidth="190" markerHeight="240" orient="auto"><path d="M 18,7 L9,13 L1,7 L9,1 Z"></path></marker></defs><defs><marker id="compositionEnd" refX="19" refY="7" markerWidth="20" markerHeight="28" orient="auto"><path d="M 18,7 L9,13 L1,7 L9,1 Z"></path></marker></defs><defs><marker id="aggregationStart" class="extension" refX="0" refY="7" markerWidth="190" markerHeight="240" orient="auto"><path d="M 18,7 L9,13 L1,7 L9,1 Z"></path></marker></defs><defs><marker id="aggregationEnd" refX="19" refY="7" markerWidth="20" markerHeight="28" orient="auto"><path d="M 18,7 L9,13 L1,7 L9,1 Z"></path></marker></defs><defs><marker id="dependencyStart" class="extension" refX="0" refY="7" markerWidth="190" markerHeight="240" orient="auto"><path d="M 5,7 L9,13 L1,7 L9,1 Z"></path></marker></defs><defs><marker id="dependencyEnd" refX="19" refY="7" markerWidth="20" markerHeight="28" orient="auto"><path d="M 18,7 L9,13 L14,7 L9,1 Z"></path></marker></defs><g id="classid-Recognizer-98" class="classGroup" transform="translate(467.671875,0 )"><rect x="0" y="0" width="62.375" height="31.625" class=" "></rect><text y="15" x="0"><tspan class="title" x="5">Recognizer</tspan></text><line x1="0" y1="22.015625" y2="22.015625" x2="62.375"></line><text x="5" y="32.015625" fill="white" class="classText"></text><line x1="0" y1="27.015625" y2="27.015625" x2="62.375"></line><text x="5" y="42.015625" fill="white" class="classText"></text></g><g id="classid-LuisAdaptiveRecognizer-99" class="classGroup" transform="translate(271.5078125,96.734375 )"><rect x="0" y="0" width="122.359375" height="31.625" class=" "></rect><text y="15" x="0"><tspan class="title" x="5">LuisAdaptiveRecognizer</tspan></text><line x1="0" y1="22.015625" y2="22.015625" x2="122.359375"></line><text x="5" y="32.015625" fill="white" class="classText"></text><line x1="0" y1="27.015625" y2="27.015625" x2="122.359375"></line><text x="5" y="42.015625" fill="white" class="classText"></text></g><g id="classid-QnAMakerRecognizer-100" class="classGroup" transform="translate(443.8671875,96.734375 )"><rect x="0" y="0" width="109.984375" height="31.625" class=" "></rect><text y="15" x="0"><tspan class="title" x="5">QnAMakerRecognizer</tspan></text><line x1="0" y1="22.015625" y2="22.015625" x2="109.984375"></line><text x="5" y="32.015625" fill="white" class="classText"></text><line x1="0" y1="27.015625" y2="27.015625" x2="109.984375"></line><text x="5" y="42.015625" fill="white" class="classText"></text></g><g id="classid-AdaptiveRecognizer-101" class="classGroup" transform="translate(603.8515625,81.625 )"><rect x="0" y="0" width="423.890625" height="61.84375" class=" "></rect><text y="15" x="0"><tspan class="title" x="164.71875">AdaptiveRecognizer</tspan></text><line x1="0" y1="22.015625" y2="22.015625" x2="423.890625"></line><text x="5" y="32.015625" fill="white" class="classText"><tspan x="5">BoolExpression LogPersonalInformation</tspan></text><line x1="0" y1="39.03125" y2="39.03125" x2="423.890625"></line><text x="5" y="54.03125" fill="white" class="classText"><tspan x="5">#FillRecognizerTelemetryProperties(RecognizerResult, telemetryProperties, DialogContext)</tspan></text></g><g id="classid-OrchestratorAdaptiveRecognizer-102" class="classGroup" transform="translate(0,193.46875 )"><rect x="0" y="0" width="163.1875" height="31.625" class=" "></rect><text y="15" x="0"><tspan class="title" x="5">OrchestratorAdaptiveRecognizer</tspan></text><line x1="0" y1="22.015625" y2="22.015625" x2="163.1875"></line><text x="5" y="32.015625" fill="white" class="classText"></text><line x1="0" y1="27.015625" y2="27.015625" x2="163.1875"></line><text x="5" y="42.015625" fill="white" class="classText"></text></g><g id="classid-MockLuisRecognizer-103" class="classGroup" transform="translate(213.1875,193.46875 )"><rect x="0" y="0" width="104.8125" height="31.625" class=" "></rect><text y="15" x="0"><tspan class="title" x="5">MockLuisRecognizer</tspan></text><line x1="0" y1="22.015625" y2="22.015625" x2="104.8125"></line><text x="5" y="32.015625" fill="white" class="classText"></text><line x1="0" y1="27.015625" y2="27.015625" x2="104.8125"></line><text x="5" y="42.015625" fill="white" class="classText"></text></g><g id="classid-CrossTrainedRecognizerSet-104" class="classGroup" transform="translate(368,193.46875 )"><rect x="0" y="0" width="136.984375" height="31.625" class=" "></rect><text y="15" x="0"><tspan class="title" x="5">CrossTrainedRecognizerSet</tspan></text><line x1="0" y1="22.015625" y2="22.015625" x2="136.984375"></line><text x="5" y="32.015625" fill="white" class="classText"></text><line x1="0" y1="27.015625" y2="27.015625" x2="136.984375"></line><text x="5" y="42.015625" fill="white" class="classText"></text></g><g id="classid-ChannelMentionEntityRecognizer-105" class="classGroup" transform="translate(554.984375,193.46875 )"><rect x="0" y="0" width="165.703125" height="31.625" class=" "></rect><text y="15" x="0"><tspan class="title" x="5">ChannelMentionEntityRecognizer</tspan></text><line x1="0" y1="22.015625" y2="22.015625" x2="165.703125"></line><text x="5" y="32.015625" fill="white" class="classText"></text><line x1="0" y1="27.015625" y2="27.015625" x2="165.703125"></line><text x="5" y="42.015625" fill="white" class="classText"></text></g><g id="classid-EntityRecognizer-106" class="classGroup" transform="translate(770.6875,193.46875 )"><rect x="0" y="0" width="90.21875" height="31.625" class=" "></rect><text y="15" x="0"><tspan class="title" x="5">EntityRecognizer</tspan></text><line x1="0" y1="22.015625" y2="22.015625" x2="90.21875"></line><text x="5" y="32.015625" fill="white" class="classText"></text><line x1="0" y1="27.015625" y2="27.015625" x2="90.21875"></line><text x="5" y="42.015625" fill="white" class="classText"></text></g><g id="classid-AllOtherEntitySubclasses-107" class="classGroup" transform="translate(752.1796875,275.09375 )"><rect x="0" y="0" width="127.234375" height="31.625" class=" "></rect><text y="15" x="0"><tspan class="title" x="5">AllOtherEntitySubclasses</tspan></text><line x1="0" y1="22.015625" y2="22.015625" x2="127.234375"></line><text x="5" y="32.015625" fill="white" class="classText"></text><line x1="0" y1="27.015625" y2="27.015625" x2="127.234375"></line><text x="5" y="42.015625" fill="white" class="classText"></text></g><g id="classid-MultiLanguageRecognizer-108" class="classGroup" transform="translate(910.90625,193.46875 )"><rect x="0" y="0" width="129.40625" height="31.625" class=" "></rect><text y="15" x="0"><tspan class="title" x="5">MultiLanguageRecognizer</tspan></text><line x1="0" y1="22.015625" y2="22.015625" x2="129.40625"></line><text x="5" y="32.015625" fill="white" class="classText"></text><line x1="0" y1="27.015625" y2="27.015625" x2="129.40625"></line><text x="5" y="42.015625" fill="white" class="classText"></text></g><g id="classid-RecognizerSet-109" class="classGroup" transform="translate(1090.3125,193.46875 )"><rect x="0" y="0" width="77.515625" height="31.625" class=" "></rect><text y="15" x="0"><tspan class="title" x="5">RecognizerSet</tspan></text><line x1="0" y1="22.015625" y2="22.015625" x2="77.515625"></line><text x="5" y="32.015625" fill="white" class="classText"></text><line x1="0" y1="27.015625" y2="27.015625" x2="77.515625"></line><text x="5" y="42.015625" fill="white" class="classText"></text></g><g id="classid-RegexRecognizer-110" class="classGroup" transform="translate(1217.828125,193.46875 )"><rect x="0" y="0" width="90.515625" height="31.625" class=" "></rect><text y="15" x="0"><tspan class="title" x="5">RegexRecognizer</tspan></text><line x1="0" y1="22.015625" y2="22.015625" x2="90.515625"></line><text x="5" y="32.015625" fill="white" class="classText"></text><line x1="0" y1="27.015625" y2="27.015625" x2="90.515625"></line><text x="5" y="42.015625" fill="white" class="classText"></text></g><g id="classid-ValueRecognizer-111" class="classGroup" transform="translate(1358.34375,193.46875 )"><rect x="0" y="0" width="88.59375" height="31.625" class=" "></rect><text y="15" x="0"><tspan class="title" x="5">ValueRecognizer</tspan></text><line x1="0" y1="22.015625" y2="22.015625" x2="88.59375"></line><text x="5" y="32.015625" fill="white" class="classText"></text><line x1="0" y1="27.015625" y2="27.015625" x2="88.59375"></line><text x="5" y="42.015625" fill="white" class="classText"></text></g><path d="M467.671875,23.472279031499767L445.1744791666667,28.997732526249806C422.6770833333333,34.523186020999844,377.6822916666667,45.57409301049992,355.1848958333333,57.78444233858329C332.6875,69.99479166666667,332.6875,83.36458333333333,332.6875,90.04947916666667L332.6875,96.734375" id="edge65" class="relation" marker-start="url(#extensionStart)"></path><path d="M498.859375,31.625L498.859375,35.791666666666664C498.859375,39.958333333333336,498.859375,48.291666666666664,498.859375,59.143229166666664C498.859375,69.99479166666667,498.859375,83.36458333333333,498.859375,90.04947916666667L498.859375,96.734375" id="edge66" class="relation" marker-start="url(#extensionStart)"></path><path d="M530.046875,19.82855945572865L577.671875,25.961299546440543C625.296875,32.094039637152434,720.546875,44.35951981857622,768.171875,54.65892657595477C815.796875,64.95833333333333,815.796875,73.29166666666667,815.796875,77.45833333333333L815.796875,81.625" id="edge67" class="relation" marker-start="url(#extensionStart)"></path><path d="M603.8515625,128.69006326613675L516.80859375,135.3198443884473C429.765625,141.94962551075784,255.6796875,155.2091877553789,168.63671875,166.00563554435612C81.59375,176.80208333333334,81.59375,185.13541666666666,81.59375,189.30208333333334L81.59375,193.46875" id="edge68" class="relation" marker-start="url(#extensionStart)"></path><path d="M603.8515625,134.08869970784937L547.4752604166666,139.8187080898745C491.0989583333333,145.54871647189958,378.3463541666667,157.0087332359498,321.9700520833333,166.90540828464157C265.59375,176.80208333333334,265.59375,185.13541666666666,265.59375,189.30208333333334L265.59375,193.46875" id="edge69" class="relation" marker-start="url(#extensionStart)"></path><path d="M606.0612011909751,143.46875L577.799698909146,147.63541666666666C549.5381966273168,151.80208333333334,493.0151920636584,160.13541666666666,464.7536897818292,168.46875C436.4921875,176.80208333333334,436.4921875,185.13541666666666,436.4921875,189.30208333333334L436.4921875,193.46875" id="edge70" class="relation" marker-start="url(#extensionStart)"></path><path d="M717.3937748847443,143.46875L704.1341353206202,147.63541666666666C690.8744957564962,151.80208333333334,664.3552166282481,160.13541666666666,651.0955770641241,168.46875C637.8359375,176.80208333333334,637.8359375,185.13541666666666,637.8359375,189.30208333333334L637.8359375,193.46875" id="edge71" class="relation" marker-start="url(#extensionStart)"></path><path d="M815.796875,143.46875L815.796875,147.63541666666666C815.796875,151.80208333333334,815.796875,160.13541666666666,815.796875,168.46875C815.796875,176.80208333333334,815.796875,185.13541666666666,815.796875,189.30208333333334L815.796875,193.46875" id="edge72" class="relation" marker-start="url(#extensionStart)"></path><path d="M815.796875,225.09375L815.796875,229.26041666666666C815.796875,233.42708333333334,815.796875,241.76041666666666,815.796875,250.09375C815.796875,258.4270833333333,815.796875,266.7604166666667,815.796875,270.9270833333333L815.796875,275.09375" id="edge73" class="relation dashed-line" marker-start="url(#extensionStart)"></path><path d="M904.1648374196703,143.46875L916.0722603497253,147.63541666666666C927.9796832797801,151.80208333333334,951.7945291398901,160.13541666666666,963.701952069945,168.46875C975.609375,176.80208333333334,975.609375,185.13541666666666,975.609375,189.30208333333334L975.609375,193.46875" id="edge74" class="relation" marker-start="url(#extensionStart)"></path><path d="M989.0207176411009,143.46875L1012.3623167842507,147.63541666666666C1035.7039159274007,151.80208333333334,1082.3871142137002,160.13541666666666,1105.72871335685,168.46875C1129.0703125,176.80208333333334,1129.0703125,185.13541666666666,1129.0703125,189.30208333333334L1129.0703125,193.46875" id="edge75" class="relation" marker-start="url(#extensionStart)"></path><path d="M1027.7421875,139.0451291853702L1066.9661458333333,143.9490659878085C1106.1901041666667,148.8530027902468,1184.6380208333333,158.6608763951234,1223.8619791666667,167.73147986422836C1263.0859375,176.80208333333334,1263.0859375,185.13541666666666,1263.0859375,189.30208333333334L1263.0859375,193.46875" id="edge76" class="relation" marker-start="url(#extensionStart)"></path><path d="M1027.7421875,132.74369787229085L1090.2252604166667,138.69787322690902C1152.7083333333333,144.65204858152723,1277.6744791666667,156.56039929076363,1340.1575520833333,166.68124131204846C1402.640625,176.80208333333334,1402.640625,185.13541666666666,1402.640625,189.30208333333334L1402.640625,193.46875" id="edge77" class="relation" marker-start="url(#extensionStart)"></path></svg>