<svg id="mermaid-1612917784172" width="100%" xmlns="http://www.w3.org/2000/svg" xmlns:xlink="http://www.w3.org/1999/xlink" height="512.546875" style="max-width: 2915.97265625px;" viewBox="-20 -20 2915.97265625 512.546875"><style>#mermaid-1612917784172{font-family:"trebuchet ms",verdana,arial,sans-serif;font-size:16px;fill:#333;}#mermaid-1612917784172 .error-icon{fill:#552222;}#mermaid-1612917784172 .error-text{fill:#552222;stroke:#552222;}#mermaid-1612917784172 .edge-thickness-normal{stroke-width:2px;}#mermaid-1612917784172 .edge-thickness-thick{stroke-width:3.5px;}#mermaid-1612917784172 .edge-pattern-solid{stroke-dasharray:0;}#mermaid-1612917784172 .edge-pattern-dashed{stroke-dasharray:3;}#mermaid-1612917784172 .edge-pattern-dotted{stroke-dasharray:2;}#mermaid-1612917784172 .marker{fill:#333333;}#mermaid-1612917784172 .marker.cross{stroke:#333333;}#mermaid-1612917784172 svg{font-family:"trebuchet ms",verdana,arial,sans-serif;font-size:16px;}#mermaid-1612917784172 g.classGroup text{fill:#9370DB;fill:#131300;stroke:none;font-family:"trebuchet ms",verdana,arial,sans-serif;font-size:10px;}#mermaid-1612917784172 g.classGroup text .title{font-weight:bolder;}#mermaid-1612917784172 .classTitle{font-weight:bolder;}#mermaid-1612917784172 .node rect,#mermaid-1612917784172 .node circle,#mermaid-1612917784172 .node ellipse,#mermaid-1612917784172 .node polygon,#mermaid-1612917784172 .node path{fill:#ECECFF;stroke:#9370DB;stroke-width:1px;}#mermaid-1612917784172 .divider{stroke:#9370DB;stroke:1;}#mermaid-1612917784172 g.clickable{cursor:pointer;}#mermaid-1612917784172 g.classGroup rect{fill:#ECECFF;stroke:#9370DB;}#mermaid-1612917784172 g.classGroup line{stroke:#9370DB;stroke-width:1;}#mermaid-1612917784172 .classLabel .box{stroke:none;stroke-width:0;fill:#ECECFF;opacity:0.5;}#mermaid-1612917784172 .classLabel .label{fill:#9370DB;font-size:10px;}#mermaid-1612917784172 .relation{stroke:#333333;stroke-width:1;fill:none;}#mermaid-1612917784172 .dashed-line{stroke-dasharray:3;}#mermaid-1612917784172 #compositionStart,#mermaid-1612917784172 .composition{fill:#333333 !important;stroke:#333333 !important;stroke-width:1;}#mermaid-1612917784172 #compositionEnd,#mermaid-1612917784172 .composition{fill:#333333 !important;stroke:#333333 !important;stroke-width:1;}#mermaid-1612917784172 #dependencyStart,#mermaid-1612917784172 .dependency{fill:#333333 !important;stroke:#333333 !important;stroke-width:1;}#mermaid-1612917784172 #dependencyStart,#mermaid-1612917784172 .dependency{fill:#333333 !important;stroke:#333333 !important;stroke-width:1;}#mermaid-1612917784172 #extensionStart,#mermaid-1612917784172 .extension{fill:#333333 !important;stroke:#333333 !important;stroke-width:1;}#mermaid-1612917784172 #extensionEnd,#mermaid-1612917784172 .extension{fill:#333333 !important;stroke:#333333 !important;stroke-width:1;}#mermaid-1612917784172 #aggregationStart,#mermaid-1612917784172 .aggregation{fill:#ECECFF !important;stroke:#333333 !important;stroke-width:1;}#mermaid-1612917784172 #aggregationEnd,#mermaid-1612917784172 .aggregation{fill:#ECECFF !important;stroke:#333333 !important;stroke-width:1;}#mermaid-1612917784172 .edgeTerminals{font-size:11px;}#mermaid-1612917784172:root{--mermaid-font-family:"trebuchet ms",verdana,arial,sans-serif;}#mermaid-1612917784172 class{fill:apa;}</style><g></g><defs><marker id="extensionStart" class="extension" refX="0" refY="7" markerWidth="190" markerHeight="240" orient="auto"><path d="M 1,7 L18,13 V 1 Z"></path></marker></defs><defs><marker id="extensionEnd" refX="19" refY="7" markerWidth="20" markerHeight="28" orient="auto"><path d="M 1,1 V 13 L18,7 Z"></path></marker></defs><defs><marker id="compositionStart" class="extension" refX="0" refY="7" markerWidth="190" markerHeight="240" orient="auto"><path d="M 18,7 L9,13 L1,7 L9,1 Z"></path></marker></defs><defs><marker id="compositionEnd" refX="19" refY="7" markerWidth="20" markerHeight="28" orient="auto"><path d="M 18,7 L9,13 L1,7 L9,1 Z"></path></marker></defs><defs><marker id="aggregationStart" class="extension" refX="0" refY="7" markerWidth="190" markerHeight="240" orient="auto"><path d="M 18,7 L9,13 L1,7 L9,1 Z"></path></marker></defs><defs><marker id="aggregationEnd" refX="19" refY="7" markerWidth="20" markerHeight="28" orient="auto"><path d="M 18,7 L9,13 L1,7 L9,1 Z"></path></marker></defs><defs><marker id="dependencyStart" class="extension" refX="0" refY="7" markerWidth="190" markerHeight="240" orient="auto"><path d="M 5,7 L9,13 L1,7 L9,1 Z"></path></marker></defs><defs><marker id="dependencyEnd" refX="19" refY="7" markerWidth="20" markerHeight="28" orient="auto"><path d="M 18,7 L9,13 L14,7 L9,1 Z"></path></marker></defs><g id="classid-RecognizerConfiguration-169" class="classGroup" transform="translate(1066.28125,0 )"><rect x="0" y="0" width="188.421875" height="63.640625" class=" "></rect><text y="15" x="0"><tspan x="68.296875">«interface»</tspan><tspan class="title" dy="10" x="36.4921875">RecognizerConfiguration</tspan></text><line x1="0" y1="32.015625" y2="32.015625" x2="188.421875"></line><text x="5" y="42.015625" fill="white" class="classText"><tspan x="5">+ string? id</tspan><tspan x="5" dy="10">+ BotTelemetryClient? telemetryClient</tspan></text><line x1="0" y1="59.03125" y2="59.03125" x2="188.421875"></line><text x="5" y="74.03125" fill="white" class="classText"></text></g><g id="classid-BotTelemetryClient-170" class="classGroup" transform="translate(0,150.546875 )"><rect x="0" y="0" width="204.875" height="99.828125" class=" "></rect><text y="15" x="0"><tspan x="76.5234375">«interface»</tspan><tspan class="title" dy="10" x="56.7109375">BotTelemetryClient</tspan></text><line x1="0" y1="32.015625" y2="32.015625" x2="204.875"></line><text x="5" y="42.015625" fill="white" class="classText"></text><line x1="0" y1="37.015625" y2="37.015625" x2="204.875"></line><text x="5" y="52.015625" fill="white" class="classText"><tspan x="5">+trackDependency(TelemetryDependency)</tspan><tspan x="5" dy="10">+trackEvent(TelemetryEvent)</tspan><tspan x="5" dy="10">+trackException(TelemetryException)</tspan><tspan x="5" dy="10">+trackTrace(TelemetryTrace)</tspan><tspan x="5" dy="10">+flush()</tspan></text></g><g id="classid-Recognizer-171" class="classGroup" transform="translate(1946.3125,184.6484375 )"><rect x="0" y="0" width="62.375" height="31.625" class=" "></rect><text y="15" x="0"><tspan class="title" x="5">Recognizer</tspan></text><line x1="0" y1="22.015625" y2="22.015625" x2="62.375"></line><text x="5" y="32.015625" fill="white" class="classText"></text><line x1="0" y1="27.015625" y2="27.015625" x2="62.375"></line><text x="5" y="42.015625" fill="white" class="classText"></text></g><g id="classid-Configurable-172" class="classGroup" transform="translate(1700.89453125,1.90625 )"><rect x="0" y="0" width="117.125" height="59.828125" class=" "></rect><text y="15" x="0"><tspan x="34.6875">«abstract»</tspan><tspan class="title" dy="10" x="28.6875">Configurable</tspan></text><line x1="0" y1="32.015625" y2="32.015625" x2="117.125"></line><text x="5" y="42.015625" fill="white" class="classText"></text><line x1="0" y1="37.015625" y2="37.015625" x2="117.125"></line><text x="5" y="52.015625" fill="white" class="classText"><tspan x="5">+configure(config)</tspan></text></g><g id="classid-LuisAdaptiveRecognizerConfiguration-173" class="classGroup" transform="translate(254.875,138.640625 )"><rect x="0" y="0" width="236.875" height="123.640625" class=" "></rect><text y="15" x="0"><tspan x="92.5234375">«interface»</tspan><tspan class="title" dy="10" x="30.7265625">LuisAdaptiveRecognizerConfiguration</tspan></text><line x1="0" y1="32.015625" y2="32.015625" x2="236.875"></line><text x="5" y="42.015625" fill="white" class="classText"><tspan x="5">+ applicationId?</tspan><tspan x="5" dy="10">+ version?</tspan><tspan x="5" dy="10">+ endpoint?</tspan><tspan x="5" dy="10">+ endpointKey?</tspan><tspan x="5" dy="10">+ externalEntityRecognizer?</tspan><tspan x="5" dy="10">+ dynamicLists?</tspan><tspan x="5" dy="10">+ predictionOptions?</tspan><tspan x="5" dy="10">+ logPersonalInformation?</tspan></text><line x1="0" y1="119.03125" y2="119.03125" x2="236.875"></line><text x="5" y="134.03125" fill="white" class="classText"></text></g><g id="classid-LuisAdaptiveRecognizer-174" class="classGroup" transform="translate(312.1328125,348.2890625 )"><rect x="0" y="0" width="122.359375" height="31.625" class=" "></rect><text y="15" x="0"><tspan class="title" x="5">LuisAdaptiveRecognizer</tspan></text><line x1="0" y1="22.015625" y2="22.015625" x2="122.359375"></line><text x="5" y="32.015625" fill="white" class="classText"></text><line x1="0" y1="27.015625" y2="27.015625" x2="122.359375"></line><text x="5" y="42.015625" fill="white" class="classText"></text></g><g id="classid-QnAMakerRecognizerConfiguration-175" class="classGroup" transform="translate(541.75,113.640625 )"><rect x="0" y="0" width="311.265625" height="173.640625" class=" "></rect><text y="15" x="0"><tspan x="129.71875">«interface»</tspan><tspan class="title" dy="10" x="74.109375">QnAMakerRecognizerConfiguration</tspan></text><line x1="0" y1="32.015625" y2="32.015625" x2="311.265625"></line><text x="5" y="42.015625" fill="white" class="classText"><tspan x="5">+ knowledgeBaseId?</tspan><tspan x="5" dy="10">+ hostname?</tspan><tspan x="5" dy="10">+ endpointKey</tspan><tspan x="5" dy="10">+ top?</tspan><tspan x="5" dy="10">+ threshold?</tspan><tspan x="5" dy="10">+ isTest?</tspan><tspan x="5" dy="10">+ rankerType?</tspan><tspan x="5" dy="10">+ strictFiltersJoinOperator?</tspan><tspan x="5" dy="10">+ includeDialogNameInMetadata?</tspan><tspan x="5" dy="10">+ metadata?</tspan><tspan x="5" dy="10">+ context?</tspan><tspan x="5" dy="10">+ qnaId?</tspan><tspan x="5" dy="10">boolean_string_Expression_BoolExpression logPersonalInformation</tspan></text><line x1="0" y1="169.03125" y2="169.03125" x2="311.265625"></line><text x="5" y="184.03125" fill="white" class="classText"></text></g><g id="classid-QnAMakerRecognizer-176" class="classGroup" transform="translate(652.390625,348.2890625 )"><rect x="0" y="0" width="109.984375" height="31.625" class=" "></rect><text y="15" x="0"><tspan class="title" x="5">QnAMakerRecognizer</tspan></text><line x1="0" y1="22.015625" y2="22.015625" x2="109.984375"></line><text x="5" y="32.015625" fill="white" class="classText"></text><line x1="0" y1="27.015625" y2="27.015625" x2="109.984375"></line><text x="5" y="42.015625" fill="white" class="classText"></text></g><g id="classid-OrchestratorAdaptiveRecognizerConfiguration-177" class="classGroup" transform="translate(903.015625,184.6484375 )"><rect x="0" y="0" width="226.234375" height="31.625" class=" "></rect><text y="15" x="0"><tspan class="title" x="5">OrchestratorAdaptiveRecognizerConfiguration</tspan></text><line x1="0" y1="22.015625" y2="22.015625" x2="226.234375"></line><text x="5" y="32.015625" fill="white" class="classText"></text><line x1="0" y1="27.015625" y2="27.015625" x2="226.234375"></line><text x="5" y="42.015625" fill="white" class="classText"></text></g><g id="classid-OrchestratorAdaptiveRecognizer-178" class="classGroup" transform="translate(944.5390625,348.2890625 )"><rect x="0" y="0" width="163.1875" height="31.625" class=" "></rect><text y="15" x="0"><tspan class="title" x="5">OrchestratorAdaptiveRecognizer</tspan></text><line x1="0" y1="22.015625" y2="22.015625" x2="163.1875"></line><text x="5" y="32.015625" fill="white" class="classText"></text><line x1="0" y1="27.015625" y2="27.015625" x2="163.1875"></line><text x="5" y="42.015625" fill="white" class="classText"></text></g><g id="classid-OrchestratorRecognizer-179" class="classGroup" transform="translate(1480.453125,184.6484375 )"><rect x="0" y="0" width="121.921875" height="31.625" class=" "></rect><text y="15" x="0"><tspan class="title" x="5">OrchestratorRecognizer</tspan></text><line x1="0" y1="22.015625" y2="22.015625" x2="121.921875"></line><text x="5" y="32.015625" fill="white" class="classText"></text><line x1="0" y1="27.015625" y2="27.015625" x2="121.921875"></line><text x="5" y="42.015625" fill="white" class="classText"></text></g><g id="classid-CrossTrainedRecognizerSetConfiguration-180" class="classGroup" transform="translate(1179.25,173.640625 )"><rect x="0" y="0" width="251.203125" height="53.640625" class=" "></rect><text y="15" x="0"><tspan x="99.6875">«interface»</tspan><tspan class="title" dy="10" x="30.7265625">CrossTrainedRecognizerSetConfiguration</tspan></text><line x1="0" y1="32.015625" y2="32.015625" x2="251.203125"></line><text x="5" y="42.015625" fill="white" class="classText"><tspan x="5">ArrayOf_StringOrRecognizer recognizers</tspan></text><line x1="0" y1="49.03125" y2="49.03125" x2="251.203125"></line><text x="5" y="64.03125" fill="white" class="classText"></text></g><g id="classid-CrossTrainedRecognizerSet-181" class="classGroup" transform="translate(1246.359375,348.2890625 )"><rect x="0" y="0" width="136.984375" height="31.625" class=" "></rect><text y="15" x="0"><tspan class="title" x="5">CrossTrainedRecognizerSet</tspan></text><line x1="0" y1="22.015625" y2="22.015625" x2="136.984375"></line><text x="5" y="32.015625" fill="white" class="classText"></text><line x1="0" y1="27.015625" y2="27.015625" x2="136.984375"></line><text x="5" y="42.015625" fill="white" class="classText"></text></g><g id="classid-MultiLanguageRecognizerConfiguration-182" class="classGroup" transform="translate(1652.375,168.640625 )"><rect x="0" y="0" width="243.9375" height="63.640625" class=" "></rect><text y="15" x="0"><tspan x="96.0546875">«interface»</tspan><tspan class="title" dy="10" x="30.734375">MultiLanguageRecognizerConfiguration</tspan></text><line x1="0" y1="32.015625" y2="32.015625" x2="243.9375"></line><text x="5" y="42.015625" fill="white" class="classText"><tspan x="5">+ languagePolicy</tspan><tspan x="5" dy="10">Record_Of_StringOrRecognizer recognizers</tspan></text><line x1="0" y1="59.03125" y2="59.03125" x2="243.9375"></line><text x="5" y="74.03125" fill="white" class="classText"></text></g><g id="classid-MultiLanguageRecognizer-183" class="classGroup" transform="translate(1719.640625,348.2890625 )"><rect x="0" y="0" width="129.40625" height="31.625" class=" "></rect><text y="15" x="0"><tspan class="title" x="5">MultiLanguageRecognizer</tspan></text><line x1="0" y1="22.015625" y2="22.015625" x2="129.40625"></line><text x="5" y="32.015625" fill="white" class="classText"></text><line x1="0" y1="27.015625" y2="27.015625" x2="129.40625"></line><text x="5" y="42.015625" fill="white" class="classText"></text></g><g id="classid-RecognizerSet-184" class="classGroup" transform="translate(2010.38671875,348.2890625 )"><rect x="0" y="0" width="77.515625" height="31.625" class=" "></rect><text y="15" x="0"><tspan class="title" x="5">RecognizerSet</tspan></text><line x1="0" y1="22.015625" y2="22.015625" x2="77.515625"></line><text x="5" y="32.015625" fill="white" class="classText"></text><line x1="0" y1="27.015625" y2="27.015625" x2="77.515625"></line><text x="5" y="42.015625" fill="white" class="classText"></text></g><g id="classid-RecognizerSetConfiguration-185" class="classGroup" transform="translate(2395.3515625,173.640625 )"><rect x="0" y="0" width="191.71875" height="53.640625" class=" "></rect><text y="15" x="0"><tspan x="69.9453125">«interface»</tspan><tspan class="title" dy="10" x="30.7265625">RecognizerSetConfiguration</tspan></text><line x1="0" y1="32.015625" y2="32.015625" x2="191.71875"></line><text x="5" y="42.015625" fill="white" class="classText"><tspan x="5">+ recognizers</tspan></text><line x1="0" y1="49.03125" y2="49.03125" x2="191.71875"></line><text x="5" y="64.03125" fill="white" class="classText"></text></g><g id="classid-RegexRecognizer-186" class="classGroup" transform="translate(2254.2578125,440.921875 )"><rect x="0" y="0" width="90.515625" height="31.625" class=" "></rect><text y="15" x="0"><tspan class="title" x="5">RegexRecognizer</tspan></text><line x1="0" y1="22.015625" y2="22.015625" x2="90.515625"></line><text x="5" y="32.015625" fill="white" class="classText"></text><line x1="0" y1="27.015625" y2="27.015625" x2="90.515625"></line><text x="5" y="42.015625" fill="white" class="classText"></text></g><g id="classid-RegexRecognizerConfiguration-187" class="classGroup" transform="translate(2373.60546875,337.28125 )"><rect x="0" y="0" width="205.046875" height="53.640625" class=" "></rect><text y="15" x="0"><tspan x="76.609375">«interface»</tspan><tspan class="title" dy="10" x="30.7265625">RegexRecognizerConfiguration</tspan></text><line x1="0" y1="32.015625" y2="32.015625" x2="205.046875"></line><text x="5" y="42.015625" fill="white" class="classText"><tspan x="5">+ intents?</tspan></text><line x1="0" y1="49.03125" y2="49.03125" x2="205.046875"></line><text x="5" y="64.03125" fill="white" class="classText"></text></g><g id="classid-ChannelMentionEntityRecognizer-188" class="classGroup" transform="translate(2157.90234375,348.2890625 )"><rect x="0" y="0" width="165.703125" height="31.625" class=" "></rect><text y="15" x="0"><tspan class="title" x="5">ChannelMentionEntityRecognizer</tspan></text><line x1="0" y1="22.015625" y2="22.015625" x2="165.703125"></line><text x="5" y="32.015625" fill="white" class="classText"></text><line x1="0" y1="27.015625" y2="27.015625" x2="165.703125"></line><text x="5" y="42.015625" fill="white" class="classText"></text></g><g id="classid-EntityRecognizer-189" class="classGroup" transform="translate(2767.24609375,348.2890625 )"><rect x="0" y="0" width="90.21875" height="31.625" class=" "></rect><text y="15" x="0"><tspan class="title" x="5">EntityRecognizer</tspan></text><line x1="0" y1="22.015625" y2="22.015625" x2="90.21875"></line><text x="5" y="32.015625" fill="white" class="classText"></text><line x1="0" y1="27.015625" y2="27.015625" x2="90.21875"></line><text x="5" y="42.015625" fill="white" class="classText"></text></g><g id="classid-ValueRecognizer-190" class="classGroup" transform="translate(2628.65234375,348.2890625 )"><rect x="0" y="0" width="88.59375" height="31.625" class=" "></rect><text y="15" x="0"><tspan class="title" x="5">ValueRecognizer</tspan></text><line x1="0" y1="22.015625" y2="22.015625" x2="88.59375"></line><text x="5" y="32.015625" fill="white" class="classText"></text><line x1="0" y1="27.015625" y2="27.015625" x2="88.59375"></line><text x="5" y="42.015625" fill="white" class="classText"></text></g><g id="classid-AllOtherEntitySubclasses-191" class="classGroup" transform="translate(2748.73828125,440.921875 )"><rect x="0" y="0" width="127.234375" height="31.625" class=" "></rect><text y="15" x="0"><tspan class="title" x="5">AllOtherEntitySubclasses</tspan></text><line x1="0" y1="22.015625" y2="22.015625" x2="127.234375"></line><text x="5" y="32.015625" fill="white" class="classText"></text><line x1="0" y1="27.015625" y2="27.015625" x2="127.234375"></line><text x="5" y="42.015625" fill="white" class="classText"></text></g><path d="M1066.28125,36.87968700389867L905.640625,45.506510003248884C745,54.13333300259911,423.71875,71.38697900129955,263.078125,90.3315103339831C102.4375,109.27604166666667,102.4375,129.91145833333334,102.4375,140.22916666666666L102.4375,150.546875" id="edge145" class="relation" marker-start="url(#aggregationStart)"></path><g class="classLabel"><rect class="box" x="543.5625" y="52.3125" width="20.53125" height="17.015625"></rect><text class="label" x="553.4507876584257" y="64.42002823013394" fill="red" text-anchor="middle">has</text></g><path d="M1254.703125,39.19951823407463L1359.90625,47.43970269506219C1465.109375,55.67988715604975,1675.515625,72.16025607802487,1793.82342847557,96.40174262234576C1912.1312319511399,120.64322916666667,1938.34058890228,152.64583333333334,1951.4452673778499,168.64713541666666L1964.54994585342,184.6484375" id="edge146" class="relation" marker-start="url(#extensionStart)"></path><g class="classLabel"><rect class="box" x="1603.484375" y="56.65625" width="58.125" height="17.015625"></rect><text class="label" x="1632.1711514125832" y="68.76523850868256" fill="red" text-anchor="middle">implements</text></g><path d="M1818.01953125,38.49860911714555L1891.302734375,46.85561176428795C1964.5859375,55.212614411430366,2111.15234375,71.92661970571518,2142.9303385416665,96.84613062973392C2174.7083333333335,121.76564155375264,2091.6979166666665,154.8906581075053,2050.1927083333335,171.4531663843816L2008.6875,188.01567466125795" id="edge147" class="relation" marker-start="url(#extensionStart)"></path><g class="classLabel"><rect class="box" x="2151.078125" y="66.65625" width="40.734375" height="17.015625"></rect><text class="label" x="2171.06922515661" y="78.75936602644387" fill="red" text-anchor="middle">extends</text></g><path d="M1066.28125,38.620659351770065L950.7864583333334,46.95732029314172C835.2916666666666,55.293981234513375,604.3020833333334,71.96730311725669,488.8072916666667,88.63729739196168C373.3125,105.30729166666667,373.3125,121.97395833333333,373.3125,130.30729166666666L373.3125,138.640625" id="edge148" class="relation" marker-start="url(#extensionStart)"></path><g class="classLabel"><rect class="box" x="674.875" y="53.328125" width="40.734375" height="17.015625"></rect><text class="label" x="694.861749860881" y="65.4305128091467" fill="red" text-anchor="middle">extends</text></g><path d="M373.3125,262.28125L373.3125,270.6145833333333C373.3125,278.9479166666667,373.3125,295.6145833333333,373.3125,309.94921875C373.3125,324.2838541666667,373.3125,336.2864583333333,373.3125,342.2877604166667L373.3125,348.2890625" id="edge149" class="relation" marker-start="url(#extensionStart)"></path><g class="classLabel"><rect class="box" x="344.625" y="293.171875" width="58.125" height="17.015625"></rect><text class="label" x="373.3125" y="305.28515625" fill="red" text-anchor="middle">implements</text></g><path d="M1946.3125,202.87912584966182L1711.1516927083333,221.1128132080515C1475.9908854166667,239.34650056644122,1005.6692708333334,275.8138752832206,751.7431980721393,300.0488647249436C497.8171253109453,324.2838541666667,460.28659437189054,336.2864583333333,441.52132890236317,342.2877604166667L422.75606343283584,348.2890625" id="edge150" class="relation" marker-start="url(#extensionStart)"></path><g class="classLabel"><rect class="box" x="1161.90625" y="250.046875" width="40.734375" height="17.015625"></rect><text class="label" x="1181.9023192004536" y="262.1492755433646" fill="red" text-anchor="middle">extends</text></g><path d="M1066.28125,43.37934196181551L1004.7981770833334,50.92288913484626C943.3151041666666,58.46643630787701,820.3489583333334,73.5535306539385,758.8658854166666,85.26374449363591C697.3828125,96.97395833333333,697.3828125,105.30729166666667,697.3828125,109.47395833333333L697.3828125,113.640625" id="edge151" class="relation" marker-start="url(#extensionStart)"></path><g class="classLabel"><rect class="box" x="849.4375" y="55.421875" width="40.734375" height="17.015625"></rect><text class="label" x="869.4250671041345" y="67.53223204248" fill="red" text-anchor="middle">extends</text></g><path d="M697.3828125,287.28125L697.3828125,291.4479166666667C697.3828125,295.6145833333333,697.3828125,303.9479166666667,698.5409108969044,314.1158854166667C699.6990092938087,324.2838541666667,702.0152060876175,336.2864583333333,703.1733044845219,342.2877604166667L704.3314028814262,348.2890625" id="edge152" class="relation" marker-start="url(#extensionStart)"></path><g class="classLabel"><rect class="box" x="669.796875" y="305.90625" width="58.125" height="17.015625"></rect><text class="label" x="698.4886232736251" y="318.0115959855123" fill="red" text-anchor="middle">implements</text></g><path d="M1946.3125,203.57262191323062L1764.7200520833333,221.69072659435884C1583.1276041666667,239.80883127548705,1219.9427083333333,276.0450406377435,1021.0511656129078,300.1644474022051C822.1596228924822,324.2838541666667,787.5614332849641,336.2864583333333,770.2623384812051,342.2877604166667L752.9632436774461,348.2890625" id="edge153" class="relation" marker-start="url(#extensionStart)"></path><g class="classLabel"><rect class="box" x="1326.890625" y="251.265625" width="40.734375" height="17.015625"></rect><text class="label" x="1346.8750544941643" y="263.3805627833643" fill="red" text-anchor="middle">extends</text></g><path d="M1016.1328125,216.2734375L1016.1328125,232.27473958333334C1016.1328125,248.27604166666666,1016.1328125,280.2786458333333,1017.2909108969044,302.28125C1018.4490092938087,324.2838541666667,1020.7652060876175,336.2864583333333,1021.9233044845219,342.2877604166667L1023.0814028814262,348.2890625" id="edge154" class="relation" marker-start="url(#extensionStart)"></path><g class="classLabel"><rect class="box" x="987.453125" y="270.5" width="58.125" height="17.015625"></rect><text class="label" x="1016.1328125" y="282.6134111400104" fill="red" text-anchor="middle">implements</text></g><path d="M1079.6485556596315,63.640625L1069.0625984663595,67.80729166666667C1058.4766412730876,71.97395833333333,1037.304726886544,80.30729166666667,1026.718769693272,100.47526041666667C1016.1328125,120.64322916666667,1016.1328125,152.64583333333334,1016.1328125,168.64713541666666L1016.1328125,184.6484375" id="edge155" class="relation" marker-start="url(#extensionStart)"></path><g class="classLabel"><rect class="box" x="987.453125" y="90.40625" width="58.125" height="17.015625"></rect><text class="label" x="1016.1328125" y="102.51518306870494" fill="red" text-anchor="middle">implements</text></g><path d="M1946.3125,204.72943523372732L1815.3424479166667,222.65473769477276C1684.3723958333333,240.5800401558182,1422.4322916666667,276.4306450779091,1275.902101903676,300.3572496222879C1129.3719121406855,324.2838541666667,1098.251636781371,336.2864583333333,1082.6914991017136,342.2877604166667L1067.1313614220564,348.2890625" id="edge156" class="relation" marker-start="url(#extensionStart)"></path><g class="classLabel"><rect class="box" x="1483.84375" y="253.1875" width="40.734375" height="17.015625"></rect><text class="label" x="1503.8324605679773" y="265.28975733505496" fill="red" text-anchor="middle">extends</text></g><path d="M1700.89453125,47.08124739671975L1674.314453125,54.007810330599796C1647.734375,60.93437326447984,1594.57421875,74.78749913223992,1567.994140625,97.7153641494533C1541.4140625,120.64322916666667,1541.4140625,152.64583333333334,1541.4140625,168.64713541666666L1541.4140625,184.6484375" id="edge157" class="relation" marker-start="url(#extensionStart)"></path><g class="classLabel"><rect class="box" x="1554.71875" y="67.859375" width="40.71875" height="17.015625"></rect><text class="label" x="1574.7017434540323" y="79.96611260892611" fill="red" text-anchor="middle">extends</text></g><path d="M1241.3358193403685,63.640625L1251.9217765336405,67.80729166666667C1262.5077337269124,71.97395833333333,1283.679648113456,80.30729166666667,1294.265605306728,98.640625C1304.8515625,116.97395833333333,1304.8515625,145.30729166666666,1304.8515625,159.47395833333334L1304.8515625,173.640625" id="edge158" class="relation" marker-start="url(#extensionStart)"></path><g class="classLabel"><rect class="box" x="1276.171875" y="84.90625" width="58.125" height="17.015625"></rect><text class="label" x="1304.8515625" y="97.01127681870494" fill="red" text-anchor="middle">implements</text></g><path d="M1304.8515625,227.28125L1304.8515625,241.44791666666666C1304.8515625,255.61458333333334,1304.8515625,283.9479166666667,1306.0096608969043,304.1158854166667C1307.1677592938088,324.2838541666667,1309.4839560876173,336.2864583333333,1310.6420544845216,342.2877604166667L1311.8001528814261,348.2890625" id="edge159" class="relation" marker-start="url(#extensionStart)"></path><g class="classLabel"><rect class="box" x="1276.171875" y="276.015625" width="58.125" height="17.015625"></rect><text class="label" x="1304.8515625" y="288.1173173900104" fill="red" text-anchor="middle">implements</text></g><path d="M1946.3125,208.42480443487239L1878.5266927083333,225.73421202906033C1810.7408854166667,243.04361962324825,1675.1692708333333,277.6624348116241,1581.3411458333333,300.97648978077945C1487.5130208333333,324.2905447499348,1435.4283854166667,336.2998394998696,1409.3860677083333,342.30448687483704L1383.34375,348.30913424980446" id="edge160" class="relation" marker-start="url(#extensionStart)"></path><g class="classLabel"><rect class="box" x="1645.28125" y="268.078125" width="40.734375" height="17.015625"></rect><text class="label" x="1665.2709919035606" y="280.1900043917752" fill="red" text-anchor="middle">extends</text></g><path d="M1254.703125,40.54081634276405L1341.3098958333333,48.55745111897005C1427.9166666666667,56.57408589517604,1601.1302083333333,72.60735544758802,1687.7369791666667,93.95732355712734C1774.34375,115.30729166666667,1774.34375,141.97395833333334,1774.34375,155.30729166666666L1774.34375,168.640625" id="edge161" class="relation" marker-start="url(#extensionStart)"></path><g class="classLabel"><rect class="box" x="1525.671875" y="56.171875" width="58.125" height="17.015625"></rect><text class="label" x="1554.3531704478073" y="68.2775042704479" fill="red" text-anchor="middle">implements</text></g><path d="M1774.34375,232.28125L1774.34375,245.61458333333334C1774.34375,258.9479166666667,1774.34375,285.6145833333333,1775.5018483969043,304.94921875C1776.6599467938086,324.2838541666667,1778.9761435876173,336.2864583333333,1780.1342419845216,342.2877604166667L1781.2923403814261,348.2890625" id="edge162" class="relation" marker-start="url(#extensionStart)"></path><g class="classLabel"><rect class="box" x="1745.65625" y="278.515625" width="58.125" height="17.015625"></rect><text class="label" x="1774.34375" y="290.6173173900104" fill="red" text-anchor="middle">implements</text></g><path d="M1964.54994585342,216.2734375L1951.4452673778499,232.27473958333334C1938.34058890228,248.27604166666666,1912.1312319511399,280.2786458333333,1887.2628071032648,302.28125C1862.3943822553895,324.2838541666667,1838.8668895107794,336.2864583333333,1827.1031431384743,342.2877604166667L1815.339396766169,348.2890625" id="edge163" class="relation" marker-start="url(#extensionStart)"></path><g class="classLabel"><rect class="box" x="1880.140625" y="282.828125" width="40.734375" height="17.015625"></rect><text class="label" x="1900.133511617684" y="294.9283106629491" fill="red" text-anchor="middle">extends</text></g><path d="M1986.2171474358975,216.2734375L1995.0383780715813,232.27473958333334C2003.859608707265,248.27604166666666,2021.5020699786326,280.2786458333333,2031.4813990112207,302.28125C2041.4607280438086,324.2838541666667,2043.7769248376173,336.2864583333333,2044.9350232345216,342.2877604166667L2046.0931216314261,348.2890625" id="edge164" class="relation" marker-start="url(#extensionStart)"></path><g class="classLabel"><rect class="box" x="1992.84375" y="268.234375" width="58.125" height="17.015625"></rect><text class="label" x="2021.533135293833" y="280.33499687020895" fill="red" text-anchor="middle">implements</text></g><path d="M2395.3515625,226.27824960249512L2342.1302083333335,240.6120830020793C2288.9088541666665,254.94591640166342,2182.4661458333335,283.6135832008317,2126.1319498427997,303.9487186837492C2069.7977538522664,324.2838541666667,2063.572070204533,336.2864583333333,2060.459228380666,342.2877604166667L2057.346386556799,348.2890625" id="edge165" class="relation" marker-start="url(#extensionStart)"></path><g class="classLabel"><rect class="box" x="2187.421875" y="262.453125" width="58.125" height="17.015625"></rect><text class="label" x="2216.1036015060863" y="274.5541803887717" fill="red" text-anchor="middle">implements</text></g><path d="M1254.703125,35.84302196409072L1460.7877604166667,44.642622470075594C1666.8723958333333,53.442222976060485,2079.0416666666665,71.04142398803025,2285.1263020833335,94.00769116068177C2491.2109375,116.97395833333333,2491.2109375,145.30729166666666,2491.2109375,159.47395833333334L2491.2109375,173.640625" id="edge166" class="relation" marker-start="url(#extensionStart)"></path><g class="classLabel"><rect class="box" x="1886.734375" y="51.953125" width="58.125" height="17.015625"></rect><text class="label" x="1915.4183411137838" y="64.05487743925421" fill="red" text-anchor="middle">implements</text></g><path d="M1998.0613319185356,216.2734375L2018.8681672237797,232.27473958333334C2039.675002529024,248.27604166666666,2081.288673139512,280.2786458333333,2102.095508444756,304.9166666666667C2122.90234375,329.5546875,2122.90234375,346.828125,2122.90234375,364.1015625C2122.90234375,381.375,2122.90234375,398.6484375,2144.794921875,412.34418034152236C2166.6875,426.0399231830447,2210.47265625,436.15797136608944,2232.365234375,441.2169954576118L2254.2578125,446.2760195491341" id="edge167" class="relation" marker-start="url(#extensionStart)"></path><g class="classLabel"><rect class="box" x="2102.90625" y="340.65625" width="40.734375" height="17.015625"></rect><text class="label" x="2122.90234375" y="352.7655914562891" fill="red" text-anchor="middle">extends</text></g><path d="M2476.12890625,390.921875L2476.12890625,395.0885416666667C2476.12890625,399.2552083333333,2476.12890625,407.5885416666667,2454.236328125,416.8142324248557C2432.34375,426.0399231830447,2388.55859375,436.15797136608944,2366.666015625,441.2169954576118L2344.7734375,446.2760195491341" id="edge168" class="relation" marker-start="url(#extensionStart)"></path><g class="classLabel"><rect class="box" x="2393.9375" y="416.171875" width="58.125" height="17.015625"></rect><text class="label" x="2422.630221386169" y="428.2845640376065" fill="red" text-anchor="middle">implements</text></g><path d="M2487.593483906676,227.28125L2485.6827209638964,241.44791666666666C2483.7719580211174,255.61458333333334,2479.9504321355585,283.9479166666667,2478.0396691927795,302.28125C2476.12890625,320.6145833333333,2476.12890625,328.9479166666667,2476.12890625,333.1145833333333L2476.12890625,337.28125" id="edge169" class="relation" marker-start="url(#extensionStart)"></path><g class="classLabel"><rect class="box" x="2451.5" y="270.0625" width="58.125" height="17.015625"></rect><text class="label" x="2480.190357143626" y="282.1690787280672" fill="red" text-anchor="middle">implements</text></g><path d="M2008.6875,213.7082091009081L2047.365234375,230.13704925075675C2086.04296875,246.5658894006054,2163.3984375,279.4235697003027,2202.076171875,301.8537119334847C2240.75390625,324.2838541666667,2240.75390625,336.2864583333333,2240.75390625,342.2877604166667L2240.75390625,348.2890625" id="edge170" class="relation" marker-start="url(#extensionStart)"></path><g class="classLabel"><rect class="box" x="2121.296875" y="257.921875" width="40.734375" height="17.015625"></rect><text class="label" x="2141.2916727944917" y="270.03345134290834" fill="red" text-anchor="middle">extends</text></g><path d="M2008.6875,204.63818269588438L2142.6321614583335,222.57869391323698C2276.5768229166665,240.5192051305896,2544.4661458333335,276.40022756529476,2678.4108072916665,300.3420408659807C2812.35546875,324.2838541666667,2812.35546875,336.2864583333333,2812.35546875,342.2877604166667L2812.35546875,348.2890625" id="edge171" class="relation" marker-start="url(#extensionStart)"></path><g class="classLabel"><rect class="box" x="2408.375" y="248.734375" width="40.734375" height="17.015625"></rect><text class="label" x="2428.3660378320837" y="260.8498109435752" fill="red" text-anchor="middle">extends</text></g><path d="M2008.6875,205.4755322426068L2119.3977864583335,223.27648520217232C2230.1080729166665,241.07743816173786,2451.5286458333335,276.67934408086893,2562.2389322916665,300.4815991237678C2672.94921875,324.2838541666667,2672.94921875,336.2864583333333,2672.94921875,342.2877604166667L2672.94921875,348.2890625" id="edge172" class="relation" marker-start="url(#extensionStart)"></path><g class="classLabel"><rect class="box" x="2338.609375" y="249.625" width="40.734375" height="17.015625"></rect><text class="label" x="2358.5939557905576" y="261.7365045427753" fill="red" text-anchor="middle">extends</text></g><path d="M2812.35546875,379.9140625L2812.35546875,385.9153645833333C2812.35546875,391.9166666666667,2812.35546875,403.9192708333333,2812.35546875,414.0872395833333C2812.35546875,424.2552083333333,2812.35546875,432.5885416666667,2812.35546875,436.7552083333333L2812.35546875,440.921875" id="edge173" class="relation dashed-line" marker-start="url(#extensionStart)"></path></svg>