<svg id="mermaid-1612946635343" width="100%" xmlns="http://www.w3.org/2000/svg" xmlns:xlink="http://www.w3.org/1999/xlink" height="560.578125" style="max-width: 703.109375px;" viewBox="-20 -20 703.109375 560.578125"><style>#mermaid-1612946635343{font-family:"trebuchet ms",verdana,arial,sans-serif;font-size:16px;fill:#333;}#mermaid-1612946635343 .error-icon{fill:#552222;}#mermaid-1612946635343 .error-text{fill:#552222;stroke:#552222;}#mermaid-1612946635343 .edge-thickness-normal{stroke-width:2px;}#mermaid-1612946635343 .edge-thickness-thick{stroke-width:3.5px;}#mermaid-1612946635343 .edge-pattern-solid{stroke-dasharray:0;}#mermaid-1612946635343 .edge-pattern-dashed{stroke-dasharray:3;}#mermaid-1612946635343 .edge-pattern-dotted{stroke-dasharray:2;}#mermaid-1612946635343 .marker{fill:#333333;}#mermaid-1612946635343 .marker.cross{stroke:#333333;}#mermaid-1612946635343 svg{font-family:"trebuchet ms",verdana,arial,sans-serif;font-size:16px;}#mermaid-1612946635343 g.classGroup text{fill:#9370DB;fill:#131300;stroke:none;font-family:"trebuchet ms",verdana,arial,sans-serif;font-size:10px;}#mermaid-1612946635343 g.classGroup text .title{font-weight:bolder;}#mermaid-1612946635343 .classTitle{font-weight:bolder;}#mermaid-1612946635343 .node rect,#mermaid-1612946635343 .node circle,#mermaid-1612946635343 .node ellipse,#mermaid-1612946635343 .node polygon,#mermaid-1612946635343 .node path{fill:#ECECFF;stroke:#9370DB;stroke-width:1px;}#mermaid-1612946635343 .divider{stroke:#9370DB;stroke:1;}#mermaid-1612946635343 g.clickable{cursor:pointer;}#mermaid-1612946635343 g.classGroup rect{fill:#ECECFF;stroke:#9370DB;}#mermaid-1612946635343 g.classGroup line{stroke:#9370DB;stroke-width:1;}#mermaid-1612946635343 .classLabel .box{stroke:none;stroke-width:0;fill:#ECECFF;opacity:0.5;}#mermaid-1612946635343 .classLabel .label{fill:#9370DB;font-size:10px;}#mermaid-1612946635343 .relation{stroke:#333333;stroke-width:1;fill:none;}#mermaid-1612946635343 .dashed-line{stroke-dasharray:3;}#mermaid-1612946635343 #compositionStart,#mermaid-1612946635343 .composition{fill:#333333 !important;stroke:#333333 !important;stroke-width:1;}#mermaid-1612946635343 #compositionEnd,#mermaid-1612946635343 .composition{fill:#333333 !important;stroke:#333333 !important;stroke-width:1;}#mermaid-1612946635343 #dependencyStart,#mermaid-1612946635343 .dependency{fill:#333333 !important;stroke:#333333 !important;stroke-width:1;}#mermaid-1612946635343 #dependencyStart,#mermaid-1612946635343 .dependency{fill:#333333 !important;stroke:#333333 !important;stroke-width:1;}#mermaid-1612946635343 #extensionStart,#mermaid-1612946635343 .extension{fill:#333333 !important;stroke:#333333 !important;stroke-width:1;}#mermaid-1612946635343 #extensionEnd,#mermaid-1612946635343 .extension{fill:#333333 !important;stroke:#333333 !important;stroke-width:1;}#mermaid-1612946635343 #aggregationStart,#mermaid-1612946635343 .aggregation{fill:#ECECFF !important;stroke:#333333 !important;stroke-width:1;}#mermaid-1612946635343 #aggregationEnd,#mermaid-1612946635343 .aggregation{fill:#ECECFF !important;stroke:#333333 !important;stroke-width:1;}#mermaid-1612946635343 .edgeTerminals{font-size:11px;}#mermaid-1612946635343:root{--mermaid-font-family:"trebuchet ms",verdana,arial,sans-serif;}#mermaid-1612946635343 class{fill:apa;}</style><g></g><defs><marker id="extensionStart" class="extension" refX="0" refY="7" markerWidth="190" markerHeight="240" orient="auto"><path d="M 1,7 L18,13 V 1 Z"></path></marker></defs><defs><marker id="extensionEnd" refX="19" refY="7" markerWidth="20" markerHeight="28" orient="auto"><path d="M 1,1 V 13 L18,7 Z"></path></marker></defs><defs><marker id="compositionStart" class="extension" refX="0" refY="7" markerWidth="190" markerHeight="240" orient="auto"><path d="M 18,7 L9,13 L1,7 L9,1 Z"></path></marker></defs><defs><marker id="compositionEnd" refX="19" refY="7" markerWidth="20" markerHeight="28" orient="auto"><path d="M 18,7 L9,13 L1,7 L9,1 Z"></path></marker></defs><defs><marker id="aggregationStart" class="extension" refX="0" refY="7" markerWidth="190" markerHeight="240" orient="auto"><path d="M 18,7 L9,13 L1,7 L9,1 Z"></path></marker></defs><defs><marker id="aggregationEnd" refX="19" refY="7" markerWidth="20" markerHeight="28" orient="auto"><path d="M 18,7 L9,13 L1,7 L9,1 Z"></path></marker></defs><defs><marker id="dependencyStart" class="extension" refX="0" refY="7" markerWidth="190" markerHeight="240" orient="auto"><path d="M 5,7 L9,13 L1,7 L9,1 Z"></path></marker></defs><defs><marker id="dependencyEnd" refX="19" refY="7" markerWidth="20" markerHeight="28" orient="auto"><path d="M 18,7 L9,13 L14,7 L9,1 Z"></path></marker></defs><g id="classid-BotTelemetryClient-8" class="classGroup" transform="translate(342.51171875,0 )"><rect x="0" y="0" width="204.875" height="99.828125" class=" "></rect><text y="15" x="0"><tspan x="76.5234375">«interface»</tspan><tspan class="title" dy="10" x="56.7109375">BotTelemetryClient</tspan></text><line x1="0" y1="32.015625" y2="32.015625" x2="204.875"></line><text x="5" y="42.015625" fill="white" class="classText"></text><line x1="0" y1="37.015625" y2="37.015625" x2="204.875"></line><text x="5" y="52.015625" fill="white" class="classText"><tspan x="5">+trackDependency(TelemetryDependency)</tspan><tspan x="5" dy="10">+trackEvent(TelemetryEvent)</tspan><tspan x="5" dy="10">+trackException(TelemetryException)</tspan><tspan x="5" dy="10">+trackTrace(TelemetryTrace)</tspan><tspan x="5" dy="10">+flush()</tspan></text></g><g id="classid-RecognizerConfiguration-9" class="classGroup" transform="translate(350.73828125,149.828125 )"><rect x="0" y="0" width="188.421875" height="63.640625" class=" "></rect><text y="15" x="0"><tspan x="68.296875">«interface»</tspan><tspan class="title" dy="10" x="36.4921875">RecognizerConfiguration</tspan></text><line x1="0" y1="32.015625" y2="32.015625" x2="188.421875"></line><text x="5" y="42.015625" fill="white" class="classText"><tspan x="5">+ string? id</tspan><tspan x="5" dy="10">+ BotTelemetryClient? telemetryClient</tspan></text><line x1="0" y1="59.03125" y2="59.03125" x2="188.421875"></line><text x="5" y="74.03125" fill="white" class="classText"></text></g><g id="classid-SubclassRecognizerConfiguration-10" class="classGroup" transform="translate(0,387.21875 )"><rect x="0" y="0" width="164.28125" height="31.625" class=" "></rect><text y="15" x="0"><tspan class="title" x="5">SubclassRecognizerConfiguration</tspan></text><line x1="0" y1="22.015625" y2="22.015625" x2="164.28125"></line><text x="5" y="32.015625" fill="white" class="classText"></text><line x1="0" y1="27.015625" y2="27.015625" x2="164.28125"></line><text x="5" y="42.015625" fill="white" class="classText"></text></g><g id="classid-SubclassRecognizer-11" class="classGroup" transform="translate(209.80859375,488.953125 )"><rect x="0" y="0" width="101.21875" height="31.625" class=" "></rect><text y="15" x="0"><tspan class="title" x="5">SubclassRecognizer</tspan></text><line x1="0" y1="22.015625" y2="22.015625" x2="101.21875"></line><text x="5" y="32.015625" fill="white" class="classText"></text><line x1="0" y1="27.015625" y2="27.015625" x2="101.21875"></line><text x="5" y="42.015625" fill="white" class="classText"></text></g><g id="classid-Configurable-12" class="classGroup" transform="translate(183.61328125,151.734375 )"><rect x="0" y="0" width="117.125" height="59.828125" class=" "></rect><text y="15" x="0"><tspan x="34.6875">«abstract»</tspan><tspan class="title" dy="10" x="28.6875">Configurable</tspan></text><line x1="0" y1="32.015625" y2="32.015625" x2="117.125"></line><text x="5" y="42.015625" fill="white" class="classText"></text><line x1="0" y1="37.015625" y2="37.015625" x2="117.125"></line><text x="5" y="52.015625" fill="white" class="classText"><tspan x="5">+configure(config)</tspan></text></g><g id="classid-Recognizer-13" class="classGroup" transform="translate(312.375,274.4765625 )"><rect x="0" y="0" width="62.375" height="31.625" class=" "></rect><text y="15" x="0"><tspan class="title" x="5">Recognizer</tspan></text><line x1="0" y1="22.015625" y2="22.015625" x2="62.375"></line><text x="5" y="32.015625" fill="white" class="classText"></text><line x1="0" y1="27.015625" y2="27.015625" x2="62.375"></line><text x="5" y="42.015625" fill="white" class="classText"></text></g><g id="classid-AdaptiveRecognizer-14" class="classGroup" transform="translate(214.28125,367.109375 )"><rect x="0" y="0" width="448.828125" height="71.84375" class=" "></rect><text y="15" x="0"><tspan x="200.5390625">«abstract»</tspan><tspan class="title" dy="10" x="177.1875">AdaptiveRecognizer</tspan></text><line x1="0" y1="32.015625" y2="32.015625" x2="448.828125"></line><text x="5" y="42.015625" fill="white" class="classText"><tspan x="5">BoolExpression logPersonalInformation</tspan></text><line x1="0" y1="49.03125" y2="49.03125" x2="448.828125"></line><text x="5" y="64.03125" fill="white" class="classText"><tspan x="5">#fillRecognizerResultTelemetryProperties(RecognizerResult, telemetryProperties, DialogContext)</tspan></text></g><g id="classid-AdaptiveRecognizerConfiguration-15" class="classGroup" transform="translate(424.75,263.46875 )"><rect x="0" y="0" width="218.15625" height="53.640625" class=" "></rect><text y="15" x="0"><tspan x="83.1640625">«interface»</tspan><tspan class="title" dy="10" x="30.3359375">AdaptiveRecognizerConfiguration</tspan></text><line x1="0" y1="32.015625" y2="32.015625" x2="218.15625"></line><text x="5" y="42.015625" fill="white" class="classText"><tspan x="5">+ BoolExpression? logPersonalInformation</tspan></text><line x1="0" y1="49.03125" y2="49.03125" x2="218.15625"></line><text x="5" y="64.03125" fill="white" class="classText"></text></g><path d="M444.94921875,99.828125L444.94921875,103.99479166666667C444.94921875,108.16145833333333,444.94921875,116.49479166666667,444.94921875,124.828125C444.94921875,133.16145833333334,444.94921875,141.49479166666666,444.94921875,145.66145833333334L444.94921875,149.828125" id="edge0" class="relation" marker-start="url(#aggregationStart)"></path><g class="classLabel"><rect class="box" x="430.921875" y="112.71875" width="28.390625" height="17.015625"></rect><text class="label" x="444.94921875" y="124.828125" fill="red" text-anchor="middle">has a</text></g><path d="M82.140625,418.84375L82.140625,426.3619791666667C82.140625,433.8802083333333,82.140625,448.9166666666667,103.41861979166667,461.30600364865205C124.69661458333333,473.69534063063753,167.25260416666666,483.4375562612751,188.53059895833334,488.30866407659386L209.80859375,493.1797718919126" id="edge1" class="relation" marker-start="url(#extensionStart)"></path><g class="classLabel"><rect class="box" x="95.296875" y="461.421875" width="58.125" height="17.015625"></rect><text class="label" x="123.9886798784668" y="473.53327525242054" fill="red" text-anchor="middle">implements</text></g><path d="M242.17578125,211.5625L242.17578125,216.046875C242.17578125,220.53125,242.17578125,229.5,253.9173608951769,239.98567708333334C265.6589405403538,250.47135416666666,289.1420998307076,262.4739583333333,300.8836794758845,268.4752604166667L312.6252591210614,274.4765625" id="edge2" class="relation" marker-start="url(#extensionStart)"></path><g class="classLabel"><rect class="box" x="245.4375" y="238.234375" width="40.734375" height="17.015625"></rect><text class="label" x="265.4214118833487" y="250.3499496140244" fill="red" text-anchor="middle">extends</text></g><path d="M444.94921875,213.46875L444.94921875,217.63541666666666C444.94921875,221.80208333333334,444.94921875,230.13541666666666,433.2076391048231,240.30338541666666C421.4660594596462,250.47135416666666,397.9829001692924,262.4739583333333,386.2413205241155,268.4752604166667L374.4997408789386,274.4765625" id="edge3" class="relation" marker-start="url(#extensionStart)"></path><g class="classLabel"><rect class="box" x="392.171875" y="238.671875" width="58.125" height="17.015625"></rect><text class="label" x="420.8548940325246" y="250.78373022354185" fill="red" text-anchor="middle">implements</text></g><path d="M343.5625,306.1015625L343.5625,312.1028645833333C343.5625,318.1041666666667,343.5625,330.1067708333333,350.06897601949214,340.2747395833333C356.57545203898434,350.4427083333333,369.58840407796873,358.7760416666667,376.0948800974609,362.9427083333333L382.60135611695307,367.109375" id="edge4" class="relation" marker-start="url(#extensionStart)"></path><g class="classLabel"><rect class="box" x="327.9375" y="332.796875" width="40.71875" height="17.015625"></rect><text class="label" x="347.9204215569487" y="344.900133996558" fill="red" text-anchor="middle">extends</text></g><path d="M533.828125,317.109375L533.828125,321.2760416666667C533.828125,325.4427083333333,533.828125,333.7760416666667,527.3216489805078,342.109375C520.8151729610157,350.4427083333333,507.80222092203127,358.7760416666667,501.2957449025391,362.9427083333333L494.78926888304693,367.109375" id="edge5" class="relation" marker-start="url(#extensionStart)"></path><g class="classLabel"><rect class="box" x="496.140625" y="335.765625" width="58.140625" height="17.015625"></rect><text class="label" x="524.8352364956326" y="347.86830943024205" fill="red" text-anchor="middle">implements</text></g><path d="M438.6953125,438.953125L438.6953125,443.1197916666667C438.6953125,447.2864583333333,438.6953125,455.6197916666667,417.4173177083333,464.65756614865205C396.1393229166667,473.69534063063753,353.5833333333333,483.4375562612751,332.3053385416667,488.30866407659386L311.02734375,493.1797718919126" id="edge6" class="relation" marker-start="url(#extensionStart)"></path><g class="classLabel"><rect class="box" x="367.0625" y="463.671875" width="40.71875" height="17.015625"></rect><text class="label" x="387.0461175931168" y="475.7770209746514" fill="red" text-anchor="middle">extends</text></g></svg>