<svg id="mermaid-1610055135329" width="100%" xmlns="http://www.w3.org/2000/svg" xmlns:xlink="http://www.w3.org/1999/xlink" height="346.71875" style="max-width: 1433.734375px;" viewBox="-20 -20 1433.734375 346.71875"><style>#mermaid-1610055135329{font-family:"trebuchet ms",verdana,arial,sans-serif;font-size:16px;fill:#333;}#mermaid-1610055135329 .error-icon{fill:#552222;}#mermaid-1610055135329 .error-text{fill:#552222;stroke:#552222;}#mermaid-1610055135329 .edge-thickness-normal{stroke-width:2px;}#mermaid-1610055135329 .edge-thickness-thick{stroke-width:3.5px;}#mermaid-1610055135329 .edge-pattern-solid{stroke-dasharray:0;}#mermaid-1610055135329 .edge-pattern-dashed{stroke-dasharray:3;}#mermaid-1610055135329 .edge-pattern-dotted{stroke-dasharray:2;}#mermaid-1610055135329 .marker{fill:#333333;}#mermaid-1610055135329 .marker.cross{stroke:#333333;}#mermaid-1610055135329 svg{font-family:"trebuchet ms",verdana,arial,sans-serif;font-size:16px;}#mermaid-1610055135329 g.classGroup text{fill:#9370DB;fill:#131300;stroke:none;font-family:"trebuchet ms",verdana,arial,sans-serif;font-size:10px;}#mermaid-1610055135329 g.classGroup text .title{font-weight:bolder;}#mermaid-1610055135329 .classTitle{font-weight:bolder;}#mermaid-1610055135329 .node rect,#mermaid-1610055135329 .node circle,#mermaid-1610055135329 .node ellipse,#mermaid-1610055135329 .node polygon,#mermaid-1610055135329 .node path{fill:#ECECFF;stroke:#9370DB;stroke-width:1px;}#mermaid-1610055135329 .divider{stroke:#9370DB;stroke:1;}#mermaid-1610055135329 g.clickable{cursor:pointer;}#mermaid-1610055135329 g.classGroup rect{fill:#ECECFF;stroke:#9370DB;}#mermaid-1610055135329 g.classGroup line{stroke:#9370DB;stroke-width:1;}#mermaid-1610055135329 .classLabel .box{stroke:none;stroke-width:0;fill:#ECECFF;opacity:0.5;}#mermaid-1610055135329 .classLabel .label{fill:#9370DB;font-size:10px;}#mermaid-1610055135329 .relation{stroke:#333333;stroke-width:1;fill:none;}#mermaid-1610055135329 .dashed-line{stroke-dasharray:3;}#mermaid-1610055135329 #compositionStart,#mermaid-1610055135329 .composition{fill:#333333 !important;stroke:#333333 !important;stroke-width:1;}#mermaid-1610055135329 #compositionEnd,#mermaid-1610055135329 .composition{fill:#333333 !important;stroke:#333333 !important;stroke-width:1;}#mermaid-1610055135329 #dependencyStart,#mermaid-1610055135329 .dependency{fill:#333333 !important;stroke:#333333 !important;stroke-width:1;}#mermaid-1610055135329 #dependencyStart,#mermaid-1610055135329 .dependency{fill:#333333 !important;stroke:#333333 !important;stroke-width:1;}#mermaid-1610055135329 #extensionStart,#mermaid-1610055135329 .extension{fill:#333333 !important;stroke:#333333 !important;stroke-width:1;}#mermaid-1610055135329 #extensionEnd,#mermaid-1610055135329 .extension{fill:#333333 !important;stroke:#333333 !important;stroke-width:1;}#mermaid-1610055135329 #aggregationStart,#mermaid-1610055135329 .aggregation{fill:#ECECFF !important;stroke:#333333 !important;stroke-width:1;}#mermaid-1610055135329 #aggregationEnd,#mermaid-1610055135329 .aggregation{fill:#ECECFF !important;stroke:#333333 !important;stroke-width:1;}#mermaid-1610055135329 .edgeTerminals{font-size:11px;}#mermaid-1610055135329:root{--mermaid-font-family:"trebuchet ms",verdana,arial,sans-serif;}#mermaid-1610055135329 class{fill:apa;}</style><g></g><defs><marker id="extensionStart" class="extension" refX="0" refY="7" markerWidth="190" markerHeight="240" orient="auto"><path d="M 1,7 L18,13 V 1 Z"></path></marker></defs><defs><marker id="extensionEnd" refX="19" refY="7" markerWidth="20" markerHeight="28" orient="auto"><path d="M 1,1 V 13 L18,7 Z"></path></marker></defs><defs><marker id="compositionStart" class="extension" refX="0" refY="7" markerWidth="190" markerHeight="240" orient="auto"><path d="M 18,7 L9,13 L1,7 L9,1 Z"></path></marker></defs><defs><marker id="compositionEnd" refX="19" refY="7" markerWidth="20" markerHeight="28" orient="auto"><path d="M 18,7 L9,13 L1,7 L9,1 Z"></path></marker></defs><defs><marker id="aggregationStart" class="extension" refX="0" refY="7" markerWidth="190" markerHeight="240" orient="auto"><path d="M 18,7 L9,13 L1,7 L9,1 Z"></path></marker></defs><defs><marker id="aggregationEnd" refX="19" refY="7" markerWidth="20" markerHeight="28" orient="auto"><path d="M 18,7 L9,13 L1,7 L9,1 Z"></path></marker></defs><defs><marker id="dependencyStart" class="extension" refX="0" refY="7" markerWidth="190" markerHeight="240" orient="auto"><path d="M 5,7 L9,13 L1,7 L9,1 Z"></path></marker></defs><defs><marker id="dependencyEnd" refX="19" refY="7" markerWidth="20" markerHeight="28" orient="auto"><path d="M 18,7 L9,13 L14,7 L9,1 Z"></path></marker></defs><g id="classid-Recognizer-14" class="classGroup" transform="translate(387.8671875,0 )"><rect x="0" y="0" width="62.375" height="31.625" class=" "></rect><text y="15" x="0"><tspan class="title" x="5">Recognizer</tspan></text><line x1="0" y1="22.015625" y2="22.015625" x2="62.375"></line><text x="5" y="32.015625" fill="white" class="classText"></text><line x1="0" y1="27.015625" y2="27.015625" x2="62.375"></line><text x="5" y="42.015625" fill="white" class="classText"></text></g><g id="classid-LuisAdaptiveRecognizer-15" class="classGroup" transform="translate(165.1015625,96.734375 )"><rect x="0" y="0" width="122.359375" height="31.625" class=" "></rect><text y="15" x="0"><tspan class="title" x="5">LuisAdaptiveRecognizer</tspan></text><line x1="0" y1="22.015625" y2="22.015625" x2="122.359375"></line><text x="5" y="32.015625" fill="white" class="classText"></text><line x1="0" y1="27.015625" y2="27.015625" x2="122.359375"></line><text x="5" y="42.015625" fill="white" class="classText"></text></g><g id="classid-OrchestratorAdaptiveRecognizer-16" class="classGroup" transform="translate(337.4609375,96.734375 )"><rect x="0" y="0" width="163.1875" height="31.625" class=" "></rect><text y="15" x="0"><tspan class="title" x="5">OrchestratorAdaptiveRecognizer</tspan></text><line x1="0" y1="22.015625" y2="22.015625" x2="163.1875"></line><text x="5" y="32.015625" fill="white" class="classText"></text><line x1="0" y1="27.015625" y2="27.015625" x2="163.1875"></line><text x="5" y="42.015625" fill="white" class="classText"></text></g><g id="classid-AdaptiveRecognizer-17" class="classGroup" transform="translate(550.6484375,81.625 )"><rect x="0" y="0" width="423.890625" height="61.84375" class=" "></rect><text y="15" x="0"><tspan class="title" x="164.71875">AdaptiveRecognizer</tspan></text><line x1="0" y1="22.015625" y2="22.015625" x2="423.890625"></line><text x="5" y="32.015625" fill="white" class="classText"><tspan x="5">BoolExpression LogPersonalInformation</tspan></text><line x1="0" y1="39.03125" y2="39.03125" x2="423.890625"></line><text x="5" y="54.03125" fill="white" class="classText"><tspan x="5">#FillRecognizerTelemetryProperties(RecognizerResult, telemetryProperties, DialogContext)</tspan></text></g><g id="classid-QnAMakerRecognizer-18" class="classGroup" transform="translate(0,193.46875 )"><rect x="0" y="0" width="109.984375" height="31.625" class=" "></rect><text y="15" x="0"><tspan class="title" x="5">QnAMakerRecognizer</tspan></text><line x1="0" y1="22.015625" y2="22.015625" x2="109.984375"></line><text x="5" y="32.015625" fill="white" class="classText"></text><line x1="0" y1="27.015625" y2="27.015625" x2="109.984375"></line><text x="5" y="42.015625" fill="white" class="classText"></text></g><g id="classid-MockLuisRecognizer-19" class="classGroup" transform="translate(159.984375,193.46875 )"><rect x="0" y="0" width="104.8125" height="31.625" class=" "></rect><text y="15" x="0"><tspan class="title" x="5">MockLuisRecognizer</tspan></text><line x1="0" y1="22.015625" y2="22.015625" x2="104.8125"></line><text x="5" y="32.015625" fill="white" class="classText"></text><line x1="0" y1="27.015625" y2="27.015625" x2="104.8125"></line><text x="5" y="42.015625" fill="white" class="classText"></text></g><g id="classid-CrossTrainedRecognizerSet-20" class="classGroup" transform="translate(314.796875,193.46875 )"><rect x="0" y="0" width="136.984375" height="31.625" class=" "></rect><text y="15" x="0"><tspan class="title" x="5">CrossTrainedRecognizerSet</tspan></text><line x1="0" y1="22.015625" y2="22.015625" x2="136.984375"></line><text x="5" y="32.015625" fill="white" class="classText"></text><line x1="0" y1="27.015625" y2="27.015625" x2="136.984375"></line><text x="5" y="42.015625" fill="white" class="classText"></text></g><g id="classid-ChannelMentionEntityRecognizer-21" class="classGroup" transform="translate(501.78125,193.46875 )"><rect x="0" y="0" width="165.703125" height="31.625" class=" "></rect><text y="15" x="0"><tspan class="title" x="5">ChannelMentionEntityRecognizer</tspan></text><line x1="0" y1="22.015625" y2="22.015625" x2="165.703125"></line><text x="5" y="32.015625" fill="white" class="classText"></text><line x1="0" y1="27.015625" y2="27.015625" x2="165.703125"></line><text x="5" y="42.015625" fill="white" class="classText"></text></g><g id="classid-EntityRecognizer-22" class="classGroup" transform="translate(717.484375,193.46875 )"><rect x="0" y="0" width="90.21875" height="31.625" class=" "></rect><text y="15" x="0"><tspan class="title" x="5">EntityRecognizer</tspan></text><line x1="0" y1="22.015625" y2="22.015625" x2="90.21875"></line><text x="5" y="32.015625" fill="white" class="classText"></text><line x1="0" y1="27.015625" y2="27.015625" x2="90.21875"></line><text x="5" y="42.015625" fill="white" class="classText"></text></g><g id="classid-AllOtherEntitySubclasses-23" class="classGroup" transform="translate(698.9765625,275.09375 )"><rect x="0" y="0" width="127.234375" height="31.625" class=" "></rect><text y="15" x="0"><tspan class="title" x="5">AllOtherEntitySubclasses</tspan></text><line x1="0" y1="22.015625" y2="22.015625" x2="127.234375"></line><text x="5" y="32.015625" fill="white" class="classText"></text><line x1="0" y1="27.015625" y2="27.015625" x2="127.234375"></line><text x="5" y="42.015625" fill="white" class="classText"></text></g><g id="classid-MultiLanguageRecognizer-24" class="classGroup" transform="translate(857.703125,193.46875 )"><rect x="0" y="0" width="129.40625" height="31.625" class=" "></rect><text y="15" x="0"><tspan class="title" x="5">MultiLanguageRecognizer</tspan></text><line x1="0" y1="22.015625" y2="22.015625" x2="129.40625"></line><text x="5" y="32.015625" fill="white" class="classText"></text><line x1="0" y1="27.015625" y2="27.015625" x2="129.40625"></line><text x="5" y="42.015625" fill="white" class="classText"></text></g><g id="classid-RecognizerSet-25" class="classGroup" transform="translate(1037.109375,193.46875 )"><rect x="0" y="0" width="77.515625" height="31.625" class=" "></rect><text y="15" x="0"><tspan class="title" x="5">RecognizerSet</tspan></text><line x1="0" y1="22.015625" y2="22.015625" x2="77.515625"></line><text x="5" y="32.015625" fill="white" class="classText"></text><line x1="0" y1="27.015625" y2="27.015625" x2="77.515625"></line><text x="5" y="42.015625" fill="white" class="classText"></text></g><g id="classid-RegexRecognizer-26" class="classGroup" transform="translate(1164.625,193.46875 )"><rect x="0" y="0" width="90.515625" height="31.625" class=" "></rect><text y="15" x="0"><tspan class="title" x="5">RegexRecognizer</tspan></text><line x1="0" y1="22.015625" y2="22.015625" x2="90.515625"></line><text x="5" y="32.015625" fill="white" class="classText"></text><line x1="0" y1="27.015625" y2="27.015625" x2="90.515625"></line><text x="5" y="42.015625" fill="white" class="classText"></text></g><g id="classid-ValueRecognizer-27" class="classGroup" transform="translate(1305.140625,193.46875 )"><rect x="0" y="0" width="88.59375" height="31.625" class=" "></rect><text y="15" x="0"><tspan class="title" x="5">ValueRecognizer</tspan></text><line x1="0" y1="22.015625" y2="22.015625" x2="88.59375"></line><text x="5" y="32.015625" fill="white" class="classText"></text><line x1="0" y1="27.015625" y2="27.015625" x2="88.59375"></line><text x="5" y="42.015625" fill="white" class="classText"></text></g><path d="M387.8671875,22.415276089159068L360.9361979166667,28.11689674096589C334.0052083333333,33.81851739277271,280.1432291666667,45.22175869638636,253.21223958333334,57.608275181526515C226.28125,69.99479166666667,226.28125,83.36458333333333,226.28125,90.04947916666667L226.28125,96.734375" id="edge0" class="relation" marker-start="url(#extensionStart)"></path><path d="M419.0546875,31.625L419.0546875,35.791666666666664C419.0546875,39.958333333333336,419.0546875,48.291666666666664,419.0546875,59.143229166666664C419.0546875,69.99479166666667,419.0546875,83.36458333333333,419.0546875,90.04947916666667L419.0546875,96.734375" id="edge1" class="relation" marker-start="url(#extensionStart)"></path><path d="M450.2421875,19.517580390239466L502.30078125,25.702150325199554C554.359375,31.886720260159645,658.4765625,44.25586013007982,710.53515625,54.60709673170658C762.59375,64.95833333333333,762.59375,73.29166666666667,762.59375,77.45833333333333L762.59375,81.625" id="edge2" class="relation" marker-start="url(#extensionStart)"></path><path d="M550.6484375,129.29695004305918L468.0390625,135.825583369216C385.4296875,142.3542166953728,220.2109375,155.41148334768639,137.6015625,166.10678334050985C54.9921875,176.80208333333334,54.9921875,185.13541666666666,54.9921875,189.30208333333334L54.9921875,193.46875" id="edge3" class="relation" marker-start="url(#extensionStart)"></path><path d="M550.6484375,134.08869970784937L494.2721354166667,139.8187080898745C437.8958333333333,145.54871647189958,325.1432291666667,157.0087332359498,268.7669270833333,166.90540828464157C212.390625,176.80208333333334,212.390625,185.13541666666666,212.390625,189.30208333333334L212.390625,193.46875" id="edge4" class="relation" marker-start="url(#extensionStart)"></path><path d="M552.8580761909751,143.46875L524.596573909146,147.63541666666666C496.3350716273167,151.80208333333334,439.8120670636584,160.13541666666666,411.5505647818292,168.46875C383.2890625,176.80208333333334,383.2890625,185.13541666666666,383.2890625,189.30208333333334L383.2890625,193.46875" id="edge5" class="relation" marker-start="url(#extensionStart)"></path><path d="M664.1906498847443,143.46875L650.9310103206202,147.63541666666666C637.6713707564962,151.80208333333334,611.1520916282481,160.13541666666666,597.8924520641241,168.46875C584.6328125,176.80208333333334,584.6328125,185.13541666666666,584.6328125,189.30208333333334L584.6328125,193.46875" id="edge6" class="relation" marker-start="url(#extensionStart)"></path><path d="M762.59375,143.46875L762.59375,147.63541666666666C762.59375,151.80208333333334,762.59375,160.13541666666666,762.59375,168.46875C762.59375,176.80208333333334,762.59375,185.13541666666666,762.59375,189.30208333333334L762.59375,193.46875" id="edge7" class="relation" marker-start="url(#extensionStart)"></path><path d="M762.59375,225.09375L762.59375,229.26041666666666C762.59375,233.42708333333334,762.59375,241.76041666666666,762.59375,250.09375C762.59375,258.4270833333333,762.59375,266.7604166666667,762.59375,270.9270833333333L762.59375,275.09375" id="edge8" class="relation dashed-line" marker-start="url(#extensionStart)"></path><path d="M850.9617124196703,143.46875L862.8691353497253,147.63541666666666C874.7765582797801,151.80208333333334,898.5914041398901,160.13541666666666,910.498827069945,168.46875C922.40625,176.80208333333334,922.40625,185.13541666666666,922.40625,189.30208333333334L922.40625,193.46875" id="edge9" class="relation" marker-start="url(#extensionStart)"></path><path d="M935.8175926411009,143.46875L959.1591917842507,147.63541666666666C982.5007909274005,151.80208333333334,1029.1839892137002,160.13541666666666,1052.52558835685,168.46875C1075.8671875,176.80208333333334,1075.8671875,185.13541666666666,1075.8671875,189.30208333333334L1075.8671875,193.46875" id="edge10" class="relation" marker-start="url(#extensionStart)"></path><path d="M974.5390625,139.0451291853702L1013.7630208333334,143.9490659878085C1052.9869791666667,148.8530027902468,1131.4348958333333,158.6608763951234,1170.6588541666667,167.73147986422836C1209.8828125,176.80208333333334,1209.8828125,185.13541666666666,1209.8828125,189.30208333333334L1209.8828125,193.46875" id="edge11" class="relation" marker-start="url(#extensionStart)"></path><path d="M974.5390625,132.74369787229085L1037.0221354166667,138.69787322690902C1099.5052083333333,144.65204858152723,1224.4713541666667,156.56039929076363,1286.9544270833333,166.68124131204846C1349.4375,176.80208333333334,1349.4375,185.13541666666666,1349.4375,189.30208333333334L1349.4375,193.46875" id="edge12" class="relation" marker-start="url(#extensionStart)"></path></svg>