<svg id="mermaid-1608772105012" width="100%" xmlns="http://www.w3.org/2000/svg" xmlns:xlink="http://www.w3.org/1999/xlink" height="346.71875" style="max-width: 1819.28125px;" viewBox="-20 -20 1819.28125 346.71875"><style>#mermaid-1608772105012{font-family:"trebuchet ms",verdana,arial,sans-serif;font-size:16px;fill:#333;}#mermaid-1608772105012 .error-icon{fill:#552222;}#mermaid-1608772105012 .error-text{fill:#552222;stroke:#552222;}#mermaid-1608772105012 .edge-thickness-normal{stroke-width:2px;}#mermaid-1608772105012 .edge-thickness-thick{stroke-width:3.5px;}#mermaid-1608772105012 .edge-pattern-solid{stroke-dasharray:0;}#mermaid-1608772105012 .edge-pattern-dashed{stroke-dasharray:3;}#mermaid-1608772105012 .edge-pattern-dotted{stroke-dasharray:2;}#mermaid-1608772105012 .marker{fill:#333333;}#mermaid-1608772105012 .marker.cross{stroke:#333333;}#mermaid-1608772105012 svg{font-family:"trebuchet ms",verdana,arial,sans-serif;font-size:16px;}#mermaid-1608772105012 g.classGroup text{fill:#9370DB;fill:#131300;stroke:none;font-family:"trebuchet ms",verdana,arial,sans-serif;font-size:10px;}#mermaid-1608772105012 g.classGroup text .title{font-weight:bolder;}#mermaid-1608772105012 .classTitle{font-weight:bolder;}#mermaid-1608772105012 .node rect,#mermaid-1608772105012 .node circle,#mermaid-1608772105012 .node ellipse,#mermaid-1608772105012 .node polygon,#mermaid-1608772105012 .node path{fill:#ECECFF;stroke:#9370DB;stroke-width:1px;}#mermaid-1608772105012 .divider{stroke:#9370DB;stroke:1;}#mermaid-1608772105012 g.clickable{cursor:pointer;}#mermaid-1608772105012 g.classGroup rect{fill:#ECECFF;stroke:#9370DB;}#mermaid-1608772105012 g.classGroup line{stroke:#9370DB;stroke-width:1;}#mermaid-1608772105012 .classLabel .box{stroke:none;stroke-width:0;fill:#ECECFF;opacity:0.5;}#mermaid-1608772105012 .classLabel .label{fill:#9370DB;font-size:10px;}#mermaid-1608772105012 .relation{stroke:#333333;stroke-width:1;fill:none;}#mermaid-1608772105012 .dashed-line{stroke-dasharray:3;}#mermaid-1608772105012 #compositionStart,#mermaid-1608772105012 .composition{fill:#333333 !important;stroke:#333333 !important;stroke-width:1;}#mermaid-1608772105012 #compositionEnd,#mermaid-1608772105012 .composition{fill:#333333 !important;stroke:#333333 !important;stroke-width:1;}#mermaid-1608772105012 #dependencyStart,#mermaid-1608772105012 .dependency{fill:#333333 !important;stroke:#333333 !important;stroke-width:1;}#mermaid-1608772105012 #dependencyStart,#mermaid-1608772105012 .dependency{fill:#333333 !important;stroke:#333333 !important;stroke-width:1;}#mermaid-1608772105012 #extensionStart,#mermaid-1608772105012 .extension{fill:#333333 !important;stroke:#333333 !important;stroke-width:1;}#mermaid-1608772105012 #extensionEnd,#mermaid-1608772105012 .extension{fill:#333333 !important;stroke:#333333 !important;stroke-width:1;}#mermaid-1608772105012 #aggregationStart,#mermaid-1608772105012 .aggregation{fill:#ECECFF !important;stroke:#333333 !important;stroke-width:1;}#mermaid-1608772105012 #aggregationEnd,#mermaid-1608772105012 .aggregation{fill:#ECECFF !important;stroke:#333333 !important;stroke-width:1;}#mermaid-1608772105012 .edgeTerminals{font-size:11px;}#mermaid-1608772105012:root{--mermaid-font-family:"trebuchet ms",verdana,arial,sans-serif;}#mermaid-1608772105012 class{fill:apa;}</style><g></g><defs><marker id="extensionStart" class="extension" refX="0" refY="7" markerWidth="190" markerHeight="240" orient="auto"><path d="M 1,7 L18,13 V 1 Z"></path></marker></defs><defs><marker id="extensionEnd" refX="19" refY="7" markerWidth="20" markerHeight="28" orient="auto"><path d="M 1,1 V 13 L18,7 Z"></path></marker></defs><defs><marker id="compositionStart" class="extension" refX="0" refY="7" markerWidth="190" markerHeight="240" orient="auto"><path d="M 18,7 L9,13 L1,7 L9,1 Z"></path></marker></defs><defs><marker id="compositionEnd" refX="19" refY="7" markerWidth="20" markerHeight="28" orient="auto"><path d="M 18,7 L9,13 L1,7 L9,1 Z"></path></marker></defs><defs><marker id="aggregationStart" class="extension" refX="0" refY="7" markerWidth="190" markerHeight="240" orient="auto"><path d="M 18,7 L9,13 L1,7 L9,1 Z"></path></marker></defs><defs><marker id="aggregationEnd" refX="19" refY="7" markerWidth="20" markerHeight="28" orient="auto"><path d="M 18,7 L9,13 L1,7 L9,1 Z"></path></marker></defs><defs><marker id="dependencyStart" class="extension" refX="0" refY="7" markerWidth="190" markerHeight="240" orient="auto"><path d="M 5,7 L9,13 L1,7 L9,1 Z"></path></marker></defs><defs><marker id="dependencyEnd" refX="19" refY="7" markerWidth="20" markerHeight="28" orient="auto"><path d="M 18,7 L9,13 L14,7 L9,1 Z"></path></marker></defs><g id="classid-Recognzier-161" class="classGroup" transform="translate(938.9921875,0 )"><rect x="0" y="0" width="62.375" height="31.625" class=" "></rect><text y="15" x="0"><tspan class="title" x="5">Recognzier</tspan></text><line x1="0" y1="22.015625" y2="22.015625" x2="62.375"></line><text x="5" y="32.015625" fill="white" class="classText"></text><line x1="0" y1="27.015625" y2="27.015625" x2="62.375"></line><text x="5" y="42.015625" fill="white" class="classText"></text></g><g id="classid-AdaptiveRecognizer-162" class="classGroup" transform="translate(758.234375,81.625 )"><rect x="0" y="0" width="423.890625" height="61.84375" class=" "></rect><text y="15" x="0"><tspan class="title" x="164.71875">AdaptiveRecognizer</tspan></text><line x1="0" y1="22.015625" y2="22.015625" x2="423.890625"></line><text x="5" y="32.015625" fill="white" class="classText"><tspan x="5">BoolExpression LogPersonalInformation</tspan></text><line x1="0" y1="39.03125" y2="39.03125" x2="423.890625"></line><text x="5" y="54.03125" fill="white" class="classText"><tspan x="5">#FillRecognizerTelemetryProperties(RecognizerResult, telemetryProperties, DialogContext)</tspan></text></g><g id="classid-LuisAdaptiveRecognizer-163" class="classGroup" transform="translate(0,193.46875 )"><rect x="0" y="0" width="122.359375" height="31.625" class=" "></rect><text y="15" x="0"><tspan class="title" x="5">LuisAdaptiveRecognizer</tspan></text><line x1="0" y1="22.015625" y2="22.015625" x2="122.359375"></line><text x="5" y="32.015625" fill="white" class="classText"></text><line x1="0" y1="27.015625" y2="27.015625" x2="122.359375"></line><text x="5" y="42.015625" fill="white" class="classText"></text></g><g id="classid-OrchestratorAdaptiveRecognizer-164" class="classGroup" transform="translate(172.359375,193.46875 )"><rect x="0" y="0" width="163.1875" height="31.625" class=" "></rect><text y="15" x="0"><tspan class="title" x="5">OrchestratorAdaptiveRecognizer</tspan></text><line x1="0" y1="22.015625" y2="22.015625" x2="163.1875"></line><text x="5" y="32.015625" fill="white" class="classText"></text><line x1="0" y1="27.015625" y2="27.015625" x2="163.1875"></line><text x="5" y="42.015625" fill="white" class="classText"></text></g><g id="classid-QnAMakerRecognizer-165" class="classGroup" transform="translate(385.546875,193.46875 )"><rect x="0" y="0" width="109.984375" height="31.625" class=" "></rect><text y="15" x="0"><tspan class="title" x="5">QnAMakerRecognizer</tspan></text><line x1="0" y1="22.015625" y2="22.015625" x2="109.984375"></line><text x="5" y="32.015625" fill="white" class="classText"></text><line x1="0" y1="27.015625" y2="27.015625" x2="109.984375"></line><text x="5" y="42.015625" fill="white" class="classText"></text></g><g id="classid-MockLuisRecognizer-166" class="classGroup" transform="translate(545.53125,193.46875 )"><rect x="0" y="0" width="104.8125" height="31.625" class=" "></rect><text y="15" x="0"><tspan class="title" x="5">MockLuisRecognizer</tspan></text><line x1="0" y1="22.015625" y2="22.015625" x2="104.8125"></line><text x="5" y="32.015625" fill="white" class="classText"></text><line x1="0" y1="27.015625" y2="27.015625" x2="104.8125"></line><text x="5" y="42.015625" fill="white" class="classText"></text></g><g id="classid-CrossTrainedRecognizerSet-167" class="classGroup" transform="translate(700.34375,193.46875 )"><rect x="0" y="0" width="136.984375" height="31.625" class=" "></rect><text y="15" x="0"><tspan class="title" x="5">CrossTrainedRecognizerSet</tspan></text><line x1="0" y1="22.015625" y2="22.015625" x2="136.984375"></line><text x="5" y="32.015625" fill="white" class="classText"></text><line x1="0" y1="27.015625" y2="27.015625" x2="136.984375"></line><text x="5" y="42.015625" fill="white" class="classText"></text></g><g id="classid-ChannelMentionEntityRecognizer-168" class="classGroup" transform="translate(887.328125,193.46875 )"><rect x="0" y="0" width="165.703125" height="31.625" class=" "></rect><text y="15" x="0"><tspan class="title" x="5">ChannelMentionEntityRecognizer</tspan></text><line x1="0" y1="22.015625" y2="22.015625" x2="165.703125"></line><text x="5" y="32.015625" fill="white" class="classText"></text><line x1="0" y1="27.015625" y2="27.015625" x2="165.703125"></line><text x="5" y="42.015625" fill="white" class="classText"></text></g><g id="classid-EntityRecognizer-169" class="classGroup" transform="translate(1103.03125,193.46875 )"><rect x="0" y="0" width="90.21875" height="31.625" class=" "></rect><text y="15" x="0"><tspan class="title" x="5">EntityRecognizer</tspan></text><line x1="0" y1="22.015625" y2="22.015625" x2="90.21875"></line><text x="5" y="32.015625" fill="white" class="classText"></text><line x1="0" y1="27.015625" y2="27.015625" x2="90.21875"></line><text x="5" y="42.015625" fill="white" class="classText"></text></g><g id="classid-AllOtherEntitySubclasses-170" class="classGroup" transform="translate(1084.5234375,275.09375 )"><rect x="0" y="0" width="127.234375" height="31.625" class=" "></rect><text y="15" x="0"><tspan class="title" x="5">AllOtherEntitySubclasses</tspan></text><line x1="0" y1="22.015625" y2="22.015625" x2="127.234375"></line><text x="5" y="32.015625" fill="white" class="classText"></text><line x1="0" y1="27.015625" y2="27.015625" x2="127.234375"></line><text x="5" y="42.015625" fill="white" class="classText"></text></g><g id="classid-MultiLanguageRecognizer-171" class="classGroup" transform="translate(1243.25,193.46875 )"><rect x="0" y="0" width="129.40625" height="31.625" class=" "></rect><text y="15" x="0"><tspan class="title" x="5">MultiLanguageRecognizer</tspan></text><line x1="0" y1="22.015625" y2="22.015625" x2="129.40625"></line><text x="5" y="32.015625" fill="white" class="classText"></text><line x1="0" y1="27.015625" y2="27.015625" x2="129.40625"></line><text x="5" y="42.015625" fill="white" class="classText"></text></g><g id="classid-RecognizerSet-172" class="classGroup" transform="translate(1422.65625,193.46875 )"><rect x="0" y="0" width="77.515625" height="31.625" class=" "></rect><text y="15" x="0"><tspan class="title" x="5">RecognizerSet</tspan></text><line x1="0" y1="22.015625" y2="22.015625" x2="77.515625"></line><text x="5" y="32.015625" fill="white" class="classText"></text><line x1="0" y1="27.015625" y2="27.015625" x2="77.515625"></line><text x="5" y="42.015625" fill="white" class="classText"></text></g><g id="classid-RegexRecognizer-173" class="classGroup" transform="translate(1550.171875,193.46875 )"><rect x="0" y="0" width="90.515625" height="31.625" class=" "></rect><text y="15" x="0"><tspan class="title" x="5">RegexRecognizer</tspan></text><line x1="0" y1="22.015625" y2="22.015625" x2="90.515625"></line><text x="5" y="32.015625" fill="white" class="classText"></text><line x1="0" y1="27.015625" y2="27.015625" x2="90.515625"></line><text x="5" y="42.015625" fill="white" class="classText"></text></g><g id="classid-ValueRecognizer-174" class="classGroup" transform="translate(1690.6875,193.46875 )"><rect x="0" y="0" width="88.59375" height="31.625" class=" "></rect><text y="15" x="0"><tspan class="title" x="5">ValueRecognizer</tspan></text><line x1="0" y1="22.015625" y2="22.015625" x2="88.59375"></line><text x="5" y="32.015625" fill="white" class="classText"></text><line x1="0" y1="27.015625" y2="27.015625" x2="88.59375"></line><text x="5" y="42.015625" fill="white" class="classText"></text></g><path d="M970.1796875,31.625L970.1796875,35.791666666666664C970.1796875,39.958333333333336,970.1796875,48.291666666666664,970.1796875,56.625C970.1796875,64.95833333333333,970.1796875,73.29166666666667,970.1796875,77.45833333333333L970.1796875,81.625" id="edge85" class="relation" marker-start="url(#extensionStart)"></path><path d="M758.234375,125.5857960918162L642.05859375,132.7329550765135C525.8828125,139.8801140612108,293.53125,154.1744320306054,177.35546875,165.48825768196937C61.1796875,176.80208333333334,61.1796875,185.13541666666666,61.1796875,189.30208333333334L61.1796875,193.46875" id="edge86" class="relation" marker-start="url(#extensionStart)"></path><path d="M758.234375,129.09524096829085L674.1875,135.65749247357573C590.140625,142.21974397886058,422.046875,155.34424698943027,338,166.0731651613818C253.953125,176.80208333333334,253.953125,185.13541666666666,253.953125,189.30208333333334L253.953125,193.46875" id="edge87" class="relation" marker-start="url(#extensionStart)"></path><path d="M758.234375,134.92502862532083L705.28515625,140.51564885443403C652.3359375,146.10626908354723,546.4375,157.2875095417736,493.48828125,167.04479643755346C440.5390625,176.80208333333334,440.5390625,185.13541666666666,440.5390625,189.30208333333334L440.5390625,193.46875" id="edge88" class="relation" marker-start="url(#extensionStart)"></path><path d="M764.3492071807767,143.46875L736.6139226506472,147.63541666666666C708.8786381205178,151.80208333333334,653.408069060259,160.13541666666666,625.6727845301294,168.46875C597.9375,176.80208333333334,597.9375,185.13541666666666,597.9375,189.30208333333334L597.9375,193.46875" id="edge89" class="relation" marker-start="url(#extensionStart)"></path><path d="M858.8471138062308,143.46875L843.8452510885257,147.63541666666666C828.8433883708207,151.80208333333334,798.8396629354103,160.13541666666666,783.8378002177051,168.46875C768.8359375,176.80208333333334,768.8359375,185.13541666666666,768.8359375,189.30208333333334L768.8359375,193.46875" id="edge90" class="relation" marker-start="url(#extensionStart)"></path><path d="M970.1796875,143.46875L970.1796875,147.63541666666666C970.1796875,151.80208333333334,970.1796875,160.13541666666666,970.1796875,168.46875C970.1796875,176.80208333333334,970.1796875,185.13541666666666,970.1796875,189.30208333333334L970.1796875,193.46875" id="edge91" class="relation" marker-start="url(#extensionStart)"></path><path d="M1068.5827876152557,143.46875L1081.84242717938,147.63541666666666C1095.1020667435039,151.80208333333334,1121.6213458717518,160.13541666666666,1134.880985435876,168.46875C1148.140625,176.80208333333334,1148.140625,185.13541666666666,1148.140625,189.30208333333334L1148.140625,193.46875" id="edge92" class="relation" marker-start="url(#extensionStart)"></path><path d="M1148.140625,225.09375L1148.140625,229.26041666666666C1148.140625,233.42708333333334,1148.140625,241.76041666666666,1148.140625,250.09375C1148.140625,258.4270833333333,1148.140625,266.7604166666667,1148.140625,270.9270833333333L1148.140625,275.09375" id="edge93" class="relation dashed-line" marker-start="url(#extensionStart)"></path><path d="M1156.950750034926,143.46875L1182.117812529105,147.63541666666666C1207.284875023284,151.80208333333334,1257.619000011642,160.13541666666666,1282.786062505821,168.46875C1307.953125,176.80208333333334,1307.953125,185.13541666666666,1307.953125,189.30208333333334L1307.953125,193.46875" id="edge94" class="relation" marker-start="url(#extensionStart)"></path><path d="M1182.125,136.67462312931391L1228.6731770833333,141.97364427442827C1275.2213541666667,147.27266541954262,1368.3177083333333,157.8707077097713,1414.8658854166667,167.3363955215523C1461.4140625,176.80208333333334,1461.4140625,185.13541666666666,1461.4140625,189.30208333333334L1461.4140625,193.46875" id="edge95" class="relation" marker-start="url(#extensionStart)"></path><path d="M1182.125,131.503099346199L1251.0091145833333,137.6640411218325C1319.8932291666667,143.82498289746601,1457.6614583333333,156.146866448733,1526.5455729166667,166.47447489103317C1595.4296875,176.80208333333334,1595.4296875,185.13541666666666,1595.4296875,189.30208333333334L1595.4296875,193.46875" id="edge96" class="relation" marker-start="url(#extensionStart)"></path><path d="M1182.125,128.04413785177996L1274.2682291666667,134.78157320981663C1366.4114583333333,141.51900856785332,1550.6979166666667,154.99387928392665,1642.8411458333333,165.89798130863C1734.984375,176.80208333333334,1734.984375,185.13541666666666,1734.984375,189.30208333333334L1734.984375,193.46875" id="edge97" class="relation" marker-start="url(#extensionStart)"></path></svg>